<svg width="139" height="132" viewBox="0 0 139 132" fill="none" xmlns="http://www.w3.org/2000/svg">
<path d="M24 129C20.8 129.4 19.3333 131.167 19 132H9.5C6.83333 129.167 1.5 120.7 1.5 109.5C1.5 95.5 1.5 87 3.5 84C5.5 81 11.5 60 12.5 49.5C13.5 39 15.5 16.5 18 12C20.5 7.5 23.5 3.5 28 2C32.5 0.5 35.5 0.5 37.5 0.5C39.1 0.5 41.1667 2.16667 42 3C47.5 2.66667 61.4 2 69 2H69.5C77.1 2 91 2.66667 96.5 3C97.3333 2.16667 99.4 0.5 101 0.5C103 0.5 106 0.5 110.5 2C115 3.5 118 7.5 120.5 12C123 16.5 125 39 126 49.5C127 60 133 81 135 84C137 87 137 95.5 137 109.5C137 120.7 131.667 129.167 129 132H119.5C119.167 131.167 117.7 129.4 114.5 129C110.5 128.5 76.5 128 69.5 128H69C62 128 28 128.5 24 129Z" fill="#FF3131"/>
<path fill-rule="evenodd" clip-rule="evenodd" d="M8.08683 70.6187C12.5791 69.6903 18.8542 67.0967 20.5002 61.5C21.1529 59.2808 21.6693 56.5504 22.2184 53.6469C23.7725 45.4293 25.5889 35.8251 31.5002 32.5H105.5C111.412 35.8251 113.228 45.4293 114.782 53.6469C115.331 56.5504 115.848 59.2808 116.5 61.5C118.35 67.7899 126.047 70.2866 130.489 70.8896C128.481 63.6497 126.532 55.088 126 49.5C125.943 48.8972 125.882 48.2548 125.818 47.5786C124.769 36.4759 122.857 16.2417 120.5 12C118 7.5 115 3.5 110.5 2C106 0.5 103 0.5 101 0.5C99.4002 0.5 97.3336 2.16667 96.5002 3C91.0002 2.66667 77.1002 2 69.5002 2H69.0002C61.4002 2 47.5002 2.66667 42.0002 3C41.1669 2.16667 39.1002 0.5 37.5002 0.5C35.5002 0.5 32.5002 0.5 28.0002 2C23.5002 3.5 20.5002 7.5 18.0002 12C15.6438 16.2417 13.7315 36.4759 12.6823 47.5786C12.6184 48.2548 12.5577 48.8972 12.5002 49.5C11.9747 55.0184 10.068 63.4371 8.08683 70.6187Z" fill="#FF3131"/>
<path d="M26.25 9.5C26.25 9.39888 26.1891 9.30773 26.0957 9.26903C26.0023 9.23033 25.8947 9.25172 25.8232 9.32322C24.5397 10.6068 23.3995 12.5788 22.4101 14.9344C21.419 17.2943 20.5715 20.058 19.8819 22.9419C18.503 28.7081 17.75 34.9777 17.75 39.5C17.75 44.0256 18.504 47.1892 19.4611 49.2311C19.9395 50.2517 20.4716 50.9983 20.9916 51.4935C21.5059 51.9833 22.0336 52.25 22.5 52.25C22.943 52.25 23.3989 52.0667 23.8239 51.7667C24.2508 51.4654 24.6613 51.0362 25.0185 50.5166C25.7327 49.4778 26.25 48.054 26.25 46.5V9.5Z" fill="#252525" stroke="#A3A3A3" stroke-width="0.5" stroke-linejoin="round"/>
<path d="M29 56V8.5C32.3333 7 43.2 4 60 4H76C92.8 4 103.667 7 107 8.5V56C107 63.5 100.5 70 81 70H55C35.5 70 29 63.5 29 56Z" fill="#545454"/>
<path d="M29 56V8.5C32.3333 7 43.2 4 60 4H76C92.8 4 103.667 7 107 8.5V56C107 63.5 100.5 70 81 70H55C35.5 70 29 63.5 29 56Z" fill="url(#paint0_radial_455765_26668)"/>
<g filter="url(#filter0_f_455765_26668)">
<rect x="39" y="5" width="58" height="13" fill="url(#paint1_radial_455765_26668)" fill-opacity="0.3"/>
</g>
<path d="M110.25 9.5C110.25 9.39888 110.311 9.30773 110.404 9.26903C110.498 9.23033 110.605 9.25172 110.677 9.32322C111.96 10.6068 113.1 12.5788 114.09 14.9344C115.081 17.2943 115.929 20.058 116.618 22.9419C117.997 28.7081 118.75 34.9777 118.75 39.5C118.75 44.0256 117.996 47.1892 117.039 49.2311C116.56 50.2517 116.028 50.9983 115.508 51.4935C114.994 51.9833 114.466 52.25 114 52.25C113.557 52.25 113.101 52.0667 112.676 51.7667C112.249 51.4654 111.839 51.0362 111.481 50.5166C110.767 49.4778 110.25 48.054 110.25 46.5V9.5Z" fill="#252525" stroke="#A3A3A3" stroke-width="0.5" stroke-linejoin="round"/>
<path d="M30.5 28C34.3333 26 47.1 22 67.5 22C87.9 22 101 26 105 28" stroke="#FF0A0A" stroke-opacity="0.4" stroke-linecap="round" stroke-linejoin="round"/>
<path fill-rule="evenodd" clip-rule="evenodd" d="M29 53V56C29 63.5 35.5 70 55 70H81C100.5 70 107 63.5 107 56V53C107 60.5 100.5 67 81 67H55C35.5 67 29 60.5 29 53Z" fill="#F2F2F2" fill-opacity="0.1"/>
<rect x="54.5" y="66" width="26" height="2" fill="#D0021B" fill-opacity="0.4"/>
<path d="M31.5 83C35.1898 83 37.7311 86.9851 38.9467 89.9424C39.2326 90.638 38.6146 91.3314 37.8716 91.2148C35.7633 90.884 32.5357 90.5 29.5 90.5C24.5 90.5 19 93 16.5 93C14 93 8 93 8 88C8 84.6721 9.15365 81.8056 10.0212 80.2645C10.273 79.8172 10.8382 79.6929 11.299 79.9188C12.8482 80.6786 15.6968 81.8394 19 82.5C24 83.5 26 83 31.5 83Z" fill="#6D0000"/>
<g filter="url(#filter1_f_455765_26668)">
<path d="M35.9998 89.4999C35.6665 87.9999 34.2998 84.8999 31.4998 84.4999C27.9998 83.9999 21.9997 84.9999 18.9997 83.9999C15.9997 82.9999 13.4998 82.4995 10.9998 83.4997C8.49979 84.4999 8.99976 90.3333 12.9998 91C16.9998 91.6667 18.6664 90.6666 20.4997 90.5M19.9997 88.5C20.1664 88.3333 20.0997 87.9 18.4997 87.5C16.4997 87 15.4997 88 14.4997 87.5C13.6997 87.1 14.1664 86.3333 14.4997 86" stroke="#FB4E4E" stroke-linecap="round" stroke-linejoin="round"/>
</g>
<path d="M105 83C101.31 83 98.7689 86.9851 97.5533 89.9424C97.2674 90.638 97.8854 91.3314 98.6284 91.2148C100.737 90.884 103.964 90.5 107 90.5C112 90.5 117.5 93 120 93C122.5 93 128.5 93 128.5 88C128.5 84.6721 127.346 81.8056 126.479 80.2645C126.227 79.8172 125.662 79.6929 125.201 79.9188C123.652 80.6786 120.803 81.8394 117.5 82.5C112.5 83.5 110.5 83 105 83Z" fill="#6D0000"/>
<g filter="url(#filter2_f_455765_26668)">
<path d="M100.5 89.4999C100.834 87.9999 102.2 84.8999 105 84.4999C108.5 83.9999 114.5 84.9999 117.5 83.9999C120.5 82.9999 123 82.4995 125.5 83.4997C128 84.4999 127.5 90.3333 123.5 91C119.5 91.6667 117.834 90.6666 116 90.5M116.5 88.5C116.334 88.3333 116.4 87.9 118 87.5C120 87 121 88 122 87.5C122.8 87.1 122.334 86.3333 122 86" stroke="#FB4E4E" stroke-linecap="round" stroke-linejoin="round"/>
</g>
<path d="M23 83C23.1667 90.5 25.3 105.5 32.5 105.5H104C111.2 105.5 113.333 90.5 113.5 83" stroke="#FF0A0A" stroke-opacity="0.4"/>
<g filter="url(#filter3_f_455765_26668)">
<path d="M69.4471 93C23.8584 93 16.1595 68.5232 18.0086 56.2848L17 23.649L50.2838 5L114.834 13.1589L122.903 56.2848C124.08 68.5232 115.036 93 69.4471 93Z" fill="black" fill-opacity="0.1"/>
</g>
<rect x="57.5" y="93.5" width="23" height="10" rx="0.5" fill="#E9E9E9" stroke="#CCCCCC"/>
<path fill-rule="evenodd" clip-rule="evenodd" d="M72.7758 83.0915C71.4418 82.5806 70.1385 82.4182 69 82.4258H68.9998C67.8612 82.4182 66.5578 82.5806 65.224 83.0915C65.0651 82.8384 65 82.6849 65 82.6849C66.4582 82.1779 67.8238 82.0044 68.9998 82C70.1759 82.0044 71.5416 82.1779 73 82.6849C73 82.6849 72.9541 82.8095 72.7758 83.0915ZM70.12 83.4688L69.0009 89L67.8727 83.468C66.813 83.4687 66.4769 83.5715 66.4281 83.9911C66.4281 83.9911 65.7122 83.7566 65.3515 83.2804C66.7598 82.7069 68.1751 82.681 68.1751 82.681L69 83.5639L69.8248 82.6811C69.8248 82.6811 71.24 82.707 72.6485 83.2805C72.2875 83.7567 71.5719 83.9912 71.5719 83.9912C71.5233 83.5716 71.1868 83.4688 70.12 83.4688Z" fill="#888585"/>
<path d="M69 78C53.8 78 40.3333 79.3333 35.5 80H103C98 79.3333 84.2 78 69 78Z" fill="black" fill-opacity="0.1"/>
<path d="M69 94C53.8 94 40.3333 92.6667 35.5 92H103C98 92.6667 84.2 94 69 94Z" fill="#C9C9C9"/>
<path d="M34 122L30.5 125.5C28.5 124.7 17.3333 125.167 12 125.5C12 125.5 14.4 124.2 20 123C25.6 121.8 31.6667 121.833 34 122Z" fill="#510000"/>
<path d="M103 122L106.5 125.5C108.5 124.7 119.667 125.167 125 125.5C125 125.5 122.6 124.2 117 123C111.4 121.8 105.333 121.833 103 122Z" fill="#510000"/>
<path d="M17 81.5H118" stroke="#FF3131"/>
<path d="M14 22H16.5V25H14C14 27 11.5 28.5 7.5 28.5C3 28.5 0 28 0 25C0 20.5 8 18 11 18C13.4 18 14 20.6667 14 22Z" fill="#FF3131"/>
<path fill-rule="evenodd" clip-rule="evenodd" d="M11.4201 27.8809C10.3781 28.2742 9.05184 28.5 7.49976 28.5C3.87616 28.5 1.22519 28.1758 0.330045 26.4831C1.74543 24.1483 7.32509 21.5 9.49976 21.5C11.9998 21.5 12.4998 23.5 12.4998 25C12.4998 25.9153 11.918 27.0826 11.4201 27.8809Z" fill="#A8A5A5"/>
<path d="M124.5 22H122V25H124.5C124.5 27 127 28.5 131 28.5C135.5 28.5 138.5 28 138.5 25C138.5 20.5 130.5 18 127.5 18C125.1 18 124.5 20.6667 124.5 22Z" fill="#FF3131"/>
<path fill-rule="evenodd" clip-rule="evenodd" d="M127.08 27.8809C128.122 28.2742 129.448 28.5 131 28.5C134.624 28.5 137.275 28.1758 138.17 26.4831C136.755 24.1483 131.175 21.5 129 21.5C126.5 21.5 126 23.5 126 25C126 25.9153 126.582 27.0826 127.08 27.8809Z" fill="#A8A5A5"/>
<g filter="url(#filter4_f_455765_26668)">
<rect x="18" y="102" width="100" height="14" rx="7" fill="black" fill-opacity="0.1"/>
</g>
<defs>
<filter id="filter0_f_455765_26668" x="37" y="3" width="62" height="17" filterUnits="userSpaceOnUse" color-interpolation-filters="sRGB">
<feFlood flood-opacity="0" result="BackgroundImageFix"/>
<feBlend mode="normal" in="SourceGraphic" in2="BackgroundImageFix" result="shape"/>
<feGaussianBlur stdDeviation="1" result="effect1_foregroundBlur_455765_26668"/>
</filter>
<filter id="filter1_f_455765_26668" x="7.97168" y="81.4546" width="29.5283" height="11.2686" filterUnits="userSpaceOnUse" color-interpolation-filters="sRGB">
<feFlood flood-opacity="0" result="BackgroundImageFix"/>
<feBlend mode="normal" in="SourceGraphic" in2="BackgroundImageFix" result="shape"/>
<feGaussianBlur stdDeviation="0.5" result="effect1_foregroundBlur_455765_26668"/>
</filter>
<filter id="filter2_f_455765_26668" x="99" y="81.4546" width="29.5283" height="11.2686" filterUnits="userSpaceOnUse" color-interpolation-filters="sRGB">
<feFlood flood-opacity="0" result="BackgroundImageFix"/>
<feBlend mode="normal" in="SourceGraphic" in2="BackgroundImageFix" result="shape"/>
<feGaussianBlur stdDeviation="0.5" result="effect1_foregroundBlur_455765_26668"/>
</filter>
<filter id="filter3_f_455765_26668" x="13" y="1" width="114" height="96" filterUnits="userSpaceOnUse" color-interpolation-filters="sRGB">
<feFlood flood-opacity="0" result="BackgroundImageFix"/>
<feBlend mode="normal" in="SourceGraphic" in2="BackgroundImageFix" result="shape"/>
<feGaussianBlur stdDeviation="2" result="effect1_foregroundBlur_455765_26668"/>
</filter>
<filter id="filter4_f_455765_26668" x="14" y="98" width="108" height="22" filterUnits="userSpaceOnUse" color-interpolation-filters="sRGB">
<feFlood flood-opacity="0" result="BackgroundImageFix"/>
<feBlend mode="normal" in="SourceGraphic" in2="BackgroundImageFix" result="shape"/>
<feGaussianBlur stdDeviation="2" result="effect1_foregroundBlur_455765_26668"/>
</filter>
<radialGradient id="paint0_radial_455765_26668" cx="0" cy="0" r="1" gradientUnits="userSpaceOnUse" gradientTransform="translate(67.5 33) rotate(90) scale(48.5 139.214)">
<stop stop-opacity="0"/>
<stop offset="1"/>
</radialGradient>
<radialGradient id="paint1_radial_455765_26668" cx="0" cy="0" r="1" gradientUnits="userSpaceOnUse" gradientTransform="translate(68 12.0417) rotate(90) scale(5.95833 34.731)">
<stop stop-color="white"/>
<stop offset="0.98895" stop-color="white" stop-opacity="0"/>
</radialGradient>
</defs>
</svg>
