<svg width="100" height="75" viewBox="0 0 100 75" fill="none" xmlns="http://www.w3.org/2000/svg">
<path d="M31.5422 13C31.5422 20.5 44.6988 24.5 44.6988 24.5C44.6988 24.5 42.6747 27 40.1446 27C37.6145 27 36.6024 25 33.5663 25C30.5301 25 28 26.5 28 30C28 33.5 30.5301 41 38.1205 41C45.7108 41 49.759 29 49.759 29C49.759 29 52.2892 30.5 52.2892 33C52.2892 35.5 50.2651 36.5 50.2651 39.5C50.2651 42.5 51.7831 45 55.3253 45C58.8675 45 66.4578 42.5 66.4578 35C66.4578 27.5 53.8072 23.5 53.8072 23.5C53.8072 23.5 55.3253 21 57.8554 21C60.3855 21 61.3976 23 64.4337 23C67.4699 23 70 21.5 70 18C70 14.5 67.4699 7 59.8795 7C52.2892 7 48.241 19 48.241 19C48.241 19 45.7108 17.5 45.7108 15C45.7108 12.5 47.7349 11.5 47.7349 8.5C47.7349 5.5 46.2169 3 42.6747 3C39.1325 3 31.5422 5.5 31.5422 13Z" fill="#FFFBFB"/>
<path d="M17.0633 68V57.5H18.2933L23.0033 65.435H22.3433L26.9933 57.5H28.2233L28.2383 68H26.7983L26.7833 59.765H27.1283L22.9883 66.725H22.2983L18.1283 59.765H18.5033V68H17.0633ZM29.7995 68L34.5545 57.5H36.0395L40.8095 68H39.2345L34.9895 58.34H35.5895L31.3445 68H29.7995ZM31.8245 65.375L32.2295 64.175H38.1395L38.5745 65.375H31.8245ZM42.3758 68V57.5H43.6058L50.5508 66.125H49.9058V57.5H51.4058V68H50.1758L43.2308 59.375H43.8758V68H42.3758ZM58.8986 68.12C57.5186 68.12 56.4336 67.725 55.6436 66.935C54.8536 66.145 54.4586 64.99 54.4586 63.47V57.5H55.9586V63.41C55.9586 64.58 56.2136 65.435 56.7236 65.975C57.2436 66.515 57.9736 66.785 58.9136 66.785C59.8636 66.785 60.5936 66.515 61.1036 65.975C61.6236 65.435 61.8836 64.58 61.8836 63.41V57.5H63.3386V63.47C63.3386 64.99 62.9436 66.145 62.1536 66.935C61.3736 67.725 60.2886 68.12 58.8986 68.12ZM64.6041 68L69.3591 57.5H70.8441L75.6141 68H74.0391L69.7941 58.34H70.3941L66.1491 68H64.6041ZM66.6291 65.375L67.0341 64.175H72.9441L73.3791 65.375H66.6291ZM77.1805 68V57.5H78.6805V66.695H84.3655V68H77.1805Z" fill="white"/>
</svg>
