<svg width="48" height="48" viewBox="0 0 48 48" fill="none" xmlns="http://www.w3.org/2000/svg">
<g filter="url(#filter0_d_455771_35623)">
<g filter="url(#filter1_d_455771_35623)">
<path fill-rule="evenodd" clip-rule="evenodd" d="M8 10H40V28.0706H32.3091V25.7793C32.2991 25.4016 32.4004 25.084 32.5723 24.6292C32.644 24.439 32.7229 24.2507 32.8022 24.0623L32.8037 24.0586C32.9968 23.5984 33.1904 23.1372 33.2771 22.6443H35.1179L32.3091 17.0083L29.5 22.6443H31.21C31.1333 22.8572 31.0413 23.0803 30.9468 23.3088L30.9438 23.3162L30.9404 23.3242L30.937 23.3325C30.8574 23.5254 30.7766 23.7222 30.7017 23.9199C30.5029 24.449 30.3188 25.1194 30.3091 25.7805V28.0706H24.3091V25.7793C24.2991 25.4016 24.4004 25.084 24.5723 24.6292C24.644 24.439 24.7229 24.2507 24.8022 24.0623L24.8037 24.0586C24.9968 23.5984 25.1904 23.1372 25.2771 22.6443H27.1179L24.3091 17.0083L21.5 22.6443H23.21C23.1333 22.8572 23.0413 23.0803 22.9468 23.3088L22.9438 23.3162L22.9404 23.3242L22.937 23.3325C22.8574 23.5254 22.7766 23.7222 22.7017 23.9199C22.5029 24.449 22.3188 25.1194 22.3091 25.7805V28.0706H16.3101V25.7793C16.3 25.4016 16.4014 25.084 16.5732 24.6292C16.645 24.439 16.7239 24.2507 16.8032 24.0623L16.8047 24.0586C16.9978 23.5984 17.1914 23.1372 17.2781 22.6443H19.1189L16.3101 17.0083L13.501 22.6443H15.2109C15.1343 22.8572 15.0422 23.0803 14.9478 23.3088L14.9448 23.3162L14.9414 23.3242L14.938 23.3325C14.8584 23.5254 14.7776 23.7222 14.7026 23.9199C14.5039 24.449 14.3198 25.1194 14.3101 25.7805V28.0706H8V10ZM6 10C6 8.89551 6.89551 8 8 8H40C41.1045 8 42 8.89551 42 10V28.0706C42 29.175 41.1045 30.0706 40 30.0706H34.8423C35.1008 30.7988 35.3101 31.7026 35.3101 32.6765C35.3088 33.7297 35.1646 35.1357 34.7634 36.4272C34.3516 37.7358 33.6348 39.0784 32.4099 40L31.21 38.3948C31.9851 37.8118 32.5183 36.8972 32.8564 35.823C33.2056 34.7317 33.3113 33.6299 33.3101 32.6765C33.3101 31.6042 32.9502 30.6238 32.6746 30.0706H26.8423C27.1008 30.7988 27.3101 31.7026 27.3101 32.6765C27.3088 33.7297 27.1646 35.1357 26.7634 36.4272C26.3516 37.7358 25.6348 39.0784 24.4099 40L23.21 38.3948C23.9851 37.8118 24.5183 36.8972 24.8564 35.823C25.2056 34.7317 25.3113 33.6299 25.3101 32.6765C25.3101 31.6042 24.9502 30.6238 24.6746 30.0706H18.3423C18.6008 30.7988 18.8101 31.7026 18.8101 32.6765C18.8088 33.7297 18.6646 35.1357 18.2634 36.4272C17.8516 37.7358 17.1348 39.0784 15.9099 40L14.71 38.3948C15.4851 37.8118 16.0183 36.8972 16.3564 35.823C16.7056 34.7317 16.8113 33.6299 16.8101 32.6765C16.8101 31.6042 16.4502 30.6238 16.1746 30.0706H8C6.89551 30.0706 6 29.175 6 28.0706V10Z" fill="#D0021B"/>
</g>
</g>
<defs>
<filter id="filter0_d_455771_35623" x="-6" y="-6" width="60" height="60" filterUnits="userSpaceOnUse" color-interpolation-filters="sRGB">
<feFlood flood-opacity="0" result="BackgroundImageFix"/>
<feColorMatrix in="SourceAlpha" type="matrix" values="0 0 0 0 0 0 0 0 0 0 0 0 0 0 0 0 0 0 127 0" result="hardAlpha"/>
<feOffset/>
<feGaussianBlur stdDeviation="3"/>
<feColorMatrix type="matrix" values="0 0 0 0 0.815686 0 0 0 0 0.00784314 0 0 0 0 0.105882 0 0 0 0.5 0"/>
<feBlend mode="normal" in2="BackgroundImageFix" result="effect1_dropShadow_455771_35623"/>
<feBlend mode="normal" in="SourceGraphic" in2="effect1_dropShadow_455771_35623" result="shape"/>
</filter>
<filter id="filter1_d_455771_35623" x="0" y="2" width="48" height="44" filterUnits="userSpaceOnUse" color-interpolation-filters="sRGB">
<feFlood flood-opacity="0" result="BackgroundImageFix"/>
<feColorMatrix in="SourceAlpha" type="matrix" values="0 0 0 0 0 0 0 0 0 0 0 0 0 0 0 0 0 0 127 0" result="hardAlpha"/>
<feOffset/>
<feGaussianBlur stdDeviation="3"/>
<feColorMatrix type="matrix" values="0 0 0 0 0.815686 0 0 0 0 0.00784314 0 0 0 0 0.105882 0 0 0 1 0"/>
<feBlend mode="normal" in2="BackgroundImageFix" result="effect1_dropShadow_455771_35623"/>
<feBlend mode="normal" in="SourceGraphic" in2="effect1_dropShadow_455771_35623" result="shape"/>
</filter>
</defs>
</svg>
