<svg width="340" height="80" viewBox="0 0 340 80" fill="none" xmlns="http://www.w3.org/2000/svg">
<rect width="340" height="80" rx="40" fill="black" fill-opacity="0.9"/>
<path d="M94.14 32.5V46.5H92.5L84.1 36.06V46.5H82.1V32.5H83.74L92.14 42.94V32.5H94.14ZM101.91 35.8C103.377 35.8 104.497 36.16 105.27 36.88C106.057 37.6 106.45 38.6733 106.45 40.1V46.5H104.63V45.1C104.31 45.5933 103.85 45.9733 103.25 46.24C102.664 46.4933 101.964 46.62 101.15 46.62C99.9638 46.62 99.0105 46.3333 98.2905 45.76C97.5838 45.1867 97.2305 44.4333 97.2305 43.5C97.2305 42.5667 97.5705 41.82 98.2505 41.26C98.9305 40.6867 100.01 40.4 101.49 40.4H104.53V40.02C104.53 39.1933 104.29 38.56 103.81 38.12C103.33 37.68 102.624 37.46 101.69 37.46C101.064 37.46 100.45 37.5667 99.8505 37.78C99.2505 37.98 98.7438 38.2533 98.3305 38.6L97.5305 37.16C98.0771 36.72 98.7305 36.3867 99.4905 36.16C100.25 35.92 101.057 35.8 101.91 35.8ZM101.47 45.14C102.204 45.14 102.837 44.98 103.37 44.66C103.904 44.3267 104.29 43.86 104.53 43.26V41.78H101.57C99.9438 41.78 99.1305 42.3267 99.1305 43.42C99.1305 43.9533 99.3371 44.3733 99.7505 44.68C100.164 44.9867 100.737 45.14 101.47 45.14ZM119.188 35.9L114.548 46.5H112.588L107.948 35.9H109.948L113.588 44.4L117.308 35.9H119.188ZM120.98 35.9H122.9V46.5H120.98V35.9ZM121.94 33.86C121.567 33.86 121.253 33.74 121 33.5C120.76 33.26 120.64 32.9667 120.64 32.62C120.64 32.2733 120.76 31.98 121 31.74C121.253 31.4867 121.567 31.36 121.94 31.36C122.313 31.36 122.62 31.48 122.86 31.72C123.113 31.9467 123.24 32.2333 123.24 32.58C123.24 32.94 123.113 33.2467 122.86 33.5C122.62 33.74 122.313 33.86 121.94 33.86ZM136.706 35.9V45.06C136.706 46.9133 136.246 48.28 135.326 49.16C134.406 50.0533 133.033 50.5 131.206 50.5C130.206 50.5 129.253 50.36 128.346 50.08C127.439 49.8133 126.706 49.4267 126.146 48.92L127.066 47.44C127.559 47.8667 128.166 48.2 128.886 48.44C129.619 48.6933 130.373 48.82 131.146 48.82C132.386 48.82 133.299 48.5267 133.886 47.94C134.486 47.3533 134.786 46.46 134.786 45.26V44.42C134.333 44.9667 133.773 45.38 133.106 45.66C132.453 45.9267 131.739 46.06 130.966 46.06C129.953 46.06 129.033 45.8467 128.206 45.42C127.393 44.98 126.753 44.3733 126.286 43.6C125.819 42.8133 125.586 41.92 125.586 40.92C125.586 39.92 125.819 39.0333 126.286 38.26C126.753 37.4733 127.393 36.8667 128.206 36.44C129.033 36.0133 129.953 35.8 130.966 35.8C131.766 35.8 132.506 35.9467 133.186 36.24C133.879 36.5333 134.446 36.9667 134.886 37.54V35.9H136.706ZM131.186 44.38C131.879 44.38 132.499 44.2333 133.046 43.94C133.606 43.6467 134.039 43.24 134.346 42.72C134.666 42.1867 134.826 41.5867 134.826 40.92C134.826 39.8933 134.486 39.0667 133.806 38.44C133.126 37.8 132.253 37.48 131.186 37.48C130.106 37.48 129.226 37.8 128.546 38.44C127.866 39.0667 127.526 39.8933 127.526 40.92C127.526 41.5867 127.679 42.1867 127.986 42.72C128.306 43.24 128.739 43.6467 129.286 43.94C129.846 44.2333 130.479 44.38 131.186 44.38ZM144.235 35.8C145.701 35.8 146.821 36.16 147.595 36.88C148.381 37.6 148.775 38.6733 148.775 40.1V46.5H146.955V45.1C146.635 45.5933 146.175 45.9733 145.575 46.24C144.988 46.4933 144.288 46.62 143.475 46.62C142.288 46.62 141.335 46.3333 140.615 45.76C139.908 45.1867 139.555 44.4333 139.555 43.5C139.555 42.5667 139.895 41.82 140.575 41.26C141.255 40.6867 142.335 40.4 143.815 40.4H146.855V40.02C146.855 39.1933 146.615 38.56 146.135 38.12C145.655 37.68 144.948 37.46 144.015 37.46C143.388 37.46 142.775 37.5667 142.175 37.78C141.575 37.98 141.068 38.2533 140.655 38.6L139.855 37.16C140.401 36.72 141.055 36.3867 141.815 36.16C142.575 35.92 143.381 35.8 144.235 35.8ZM143.795 45.14C144.528 45.14 145.161 44.98 145.695 44.66C146.228 44.3267 146.615 43.86 146.855 43.26V41.78H143.895C142.268 41.78 141.455 42.3267 141.455 43.42C141.455 43.9533 141.661 44.3733 142.075 44.68C142.488 44.9867 143.061 45.14 143.795 45.14ZM158.288 45.88C158.008 46.12 157.661 46.3067 157.248 46.44C156.834 46.56 156.408 46.62 155.968 46.62C154.901 46.62 154.074 46.3333 153.488 45.76C152.901 45.1867 152.608 44.3667 152.608 43.3V37.48H150.808V35.9H152.608V33.58H154.528V35.9H157.568V37.48H154.528V43.22C154.528 43.7933 154.668 44.2333 154.948 44.54C155.241 44.8467 155.654 45 156.188 45C156.774 45 157.274 44.8333 157.688 44.5L158.288 45.88ZM169.838 41.26C169.838 41.4067 169.824 41.6 169.798 41.84H161.198C161.318 42.7733 161.724 43.5267 162.418 44.1C163.124 44.66 163.998 44.94 165.038 44.94C166.304 44.94 167.324 44.5133 168.098 43.66L169.158 44.9C168.678 45.46 168.078 45.8867 167.358 46.18C166.651 46.4733 165.858 46.62 164.978 46.62C163.858 46.62 162.864 46.3933 161.998 45.94C161.131 45.4733 160.458 44.8267 159.978 44C159.511 43.1733 159.278 42.24 159.278 41.2C159.278 40.1733 159.504 39.2467 159.958 38.42C160.424 37.5933 161.058 36.9533 161.858 36.5C162.671 36.0333 163.584 35.8 164.598 35.8C165.611 35.8 166.511 36.0333 167.298 36.5C168.098 36.9533 168.718 37.5933 169.158 38.42C169.611 39.2467 169.838 40.1933 169.838 41.26ZM164.598 37.42C163.678 37.42 162.904 37.7 162.278 38.26C161.664 38.82 161.304 39.5533 161.198 40.46H167.998C167.891 39.5667 167.524 38.84 166.898 38.28C166.284 37.7067 165.518 37.42 164.598 37.42Z" fill="white" fill-opacity="0.4"/>
<g clip-path="url(#clip0_254937_41492)">
<g filter="url(#filter0_d_254937_41492)">
<path d="M27.0101 40.3746L34.6085 42.6604C34.7467 42.7019 34.8541 42.8094 34.8957 42.9476L37.1815 50.5459C37.3005 50.9417 37.8543 50.9571 38.0117 50.5691L45.1492 32.973C45.2955 32.6124 44.9436 32.2606 44.583 32.4068L26.9869 39.5444C26.5989 39.7018 26.6144 40.2555 27.0101 40.3746Z" stroke="white" stroke-opacity="0.4" stroke-width="2"/>
</g>
</g>
<path d="M295.5 48L302.5 41L295.5 34" stroke="white" stroke-opacity="0.4" stroke-width="3" stroke-linecap="round" stroke-linejoin="round"/>
<defs>
<filter id="filter0_d_254937_41492" x="21.7051" y="29.3701" width="28.4805" height="28.481" filterUnits="userSpaceOnUse" color-interpolation-filters="sRGB">
<feFlood flood-opacity="0" result="BackgroundImageFix"/>
<feColorMatrix in="SourceAlpha" type="matrix" values="0 0 0 0 0 0 0 0 0 0 0 0 0 0 0 0 0 0 127 0" result="hardAlpha"/>
<feOffset dy="2"/>
<feGaussianBlur stdDeviation="2"/>
<feColorMatrix type="matrix" values="0 0 0 0 0 0 0 0 0 0 0 0 0 0 0 0 0 0 0.5 0"/>
<feBlend mode="normal" in2="BackgroundImageFix" result="effect1_dropShadow_254937_41492"/>
<feBlend mode="normal" in="SourceGraphic" in2="effect1_dropShadow_254937_41492" result="shape"/>
</filter>
<clipPath id="clip0_254937_41492">
<rect width="22" height="22" fill="white" transform="translate(23 39) rotate(-45)"/>
</clipPath>
</defs>
</svg>
