<svg width="48" height="48" viewBox="0 0 48 48" fill="none" xmlns="http://www.w3.org/2000/svg">
<path fill-rule="evenodd" clip-rule="evenodd" d="M17 4C13.6863 4 11 6.68628 11 10V38C11 41.3137 13.6863 44 17 44H31C34.3137 44 37 41.3137 37 38V10C37 6.68628 34.3137 4 31 4H17ZM27 6H21C21 6.55225 21.4478 7 22 7H26C26.5522 7 27 6.55225 27 6ZM24 43C24.8284 43 25.5 42.3284 25.5 41.5C25.5 40.6716 24.8284 40 24 40C23.1716 40 22.5 40.6716 22.5 41.5C22.5 42.3284 23.1716 43 24 43ZM14 11C14 9.89551 14.8955 9 16 9H32C33.1045 9 34 9.89551 34 11V37C34 38.1045 33.1045 39 32 39H16C14.8955 39 14 38.1045 14 37V11Z" fill="white"/>
</svg>
