<svg width="48" height="48" viewBox="0 0 48 48" fill="none" xmlns="http://www.w3.org/2000/svg">
<path d="M34.3626 6V6H33.06V6C32.7014 6 32.3576 6.14243 32.104 6.39596C32.104 6.39596 32.104 6.39596 32.104 6.39597C31.1763 7.32369 31.0485 8.78355 31.8009 9.85838C31.8009 9.85839 31.8009 9.85839 31.8009 9.85839L32.0352 10.1931C32.0352 10.1931 32.0352 10.1931 32.0352 10.1931C33.2406 11.9152 33.3769 14.1684 32.3877 16.0231C32.3877 16.0231 32.3877 16.0231 32.3877 16.0231L28.7477 22.8481C28.7477 22.8481 28.7477 22.8481 28.7477 22.8481C27.0763 25.9819 27.4042 29.8054 29.5847 32.6089L32.3617 36.1794C32.6191 36.5102 33.1448 36.3967 33.2426 35.9891L37.8166 16.9308C37.8166 16.9308 37.8166 16.9308 37.8166 16.9308C38.5809 13.7461 38.1969 10.3939 36.7323 7.46452C36.7323 7.46452 36.7323 7.46452 36.7323 7.46452C36.2835 6.56696 35.3661 6 34.3626 6Z" fill="white"/>
<path d="M22.7567 34H14C11.7909 34 9.99999 35.7909 9.99999 38V39C9.99999 41.2091 11.7909 43 14 43H25.1005C26.957 43 28.7375 42.2625 30.0502 40.9498C30.0502 40.9497 30.0502 40.9497 30.0503 40.9497L31.1653 39.8347C31.1653 39.8347 31.1653 39.8347 31.1653 39.8347C31.6022 39.3978 31.5423 38.673 31.0394 38.3139C31.0394 38.3139 31.0394 38.3139 31.0394 38.3139L26.8254 35.3039C25.6382 34.4559 24.2157 34 22.7567 34Z" fill="white"/>
</svg>
