<svg width="92" height="15" viewBox="0 0 92 15" fill="none" xmlns="http://www.w3.org/2000/svg">
<path d="M4.88061 12.12C4.08061 12.12 3.31561 12 2.58561 11.76C1.85561 11.51 1.28061 11.19 0.860605 10.8L1.41561 9.63C1.81561 9.98 2.32561 10.27 2.94561 10.5C3.56561 10.73 4.21061 10.845 4.88061 10.845C5.49061 10.845 5.98561 10.775 6.36561 10.635C6.74561 10.495 7.02561 10.305 7.20561 10.065C7.38561 9.815 7.47561 9.535 7.47561 9.225C7.47561 8.865 7.35561 8.575 7.11561 8.355C6.88561 8.135 6.58061 7.96 6.20061 7.83C5.83061 7.69 5.42061 7.57 4.97061 7.47C4.52061 7.37 4.06561 7.255 3.60561 7.125C3.15561 6.985 2.74061 6.81 2.36061 6.6C1.99061 6.39 1.69061 6.11 1.46061 5.76C1.23061 5.4 1.11561 4.94 1.11561 4.38C1.11561 3.84 1.25561 3.345 1.53561 2.895C1.82561 2.435 2.26561 2.07 2.85561 1.8C3.45561 1.52 4.21561 1.38 5.13561 1.38C5.74561 1.38 6.35061 1.46 6.95061 1.62C7.55061 1.78 8.07061 2.01 8.51061 2.31L8.01561 3.51C7.56561 3.21 7.09061 2.995 6.59061 2.865C6.09061 2.725 5.60561 2.655 5.13561 2.655C4.54561 2.655 4.06061 2.73 3.68061 2.88C3.30061 3.03 3.02061 3.23 2.84061 3.48C2.67061 3.73 2.58561 4.01 2.58561 4.32C2.58561 4.69 2.70061 4.985 2.93061 5.205C3.17061 5.425 3.47561 5.6 3.84561 5.73C4.22561 5.86 4.64061 5.98 5.09061 6.09C5.54061 6.19 5.99061 6.305 6.44061 6.435C6.90061 6.565 7.31561 6.735 7.68561 6.945C8.06561 7.155 8.37061 7.435 8.60061 7.785C8.83061 8.135 8.94561 8.585 8.94561 9.135C8.94561 9.665 8.80061 10.16 8.51061 10.62C8.22061 11.07 7.77061 11.435 7.16061 11.715C6.56061 11.985 5.80061 12.12 4.88061 12.12ZM15.142 12.09C14.482 12.09 13.877 11.94 13.327 11.64C12.787 11.33 12.352 10.875 12.022 10.275C11.702 9.675 11.542 8.925 11.542 8.025C11.542 7.125 11.697 6.375 12.007 5.775C12.327 5.175 12.757 4.725 13.297 4.425C13.847 4.125 14.462 3.975 15.142 3.975C15.922 3.975 16.612 4.145 17.212 4.485C17.812 4.825 18.287 5.3 18.637 5.91C18.987 6.51 19.162 7.215 19.162 8.025C19.162 8.835 18.987 9.545 18.637 10.155C18.287 10.765 17.812 11.24 17.212 11.58C16.612 11.92 15.922 12.09 15.142 12.09ZM10.927 14.91V4.05H12.307V6.195L12.217 8.04L12.367 9.885V14.91H10.927ZM15.022 10.83C15.532 10.83 15.987 10.715 16.387 10.485C16.797 10.255 17.117 9.93 17.347 9.51C17.587 9.08 17.707 8.585 17.707 8.025C17.707 7.455 17.587 6.965 17.347 6.555C17.117 6.135 16.797 5.81 16.387 5.58C15.987 5.35 15.532 5.235 15.022 5.235C14.522 5.235 14.067 5.35 13.657 5.58C13.257 5.81 12.937 6.135 12.697 6.555C12.467 6.965 12.352 7.455 12.352 8.025C12.352 8.585 12.467 9.08 12.697 9.51C12.937 9.93 13.257 10.255 13.657 10.485C14.067 10.715 14.522 10.83 15.022 10.83ZM24.6916 12.09C23.8416 12.09 23.0916 11.915 22.4416 11.565C21.8016 11.215 21.3016 10.735 20.9416 10.125C20.5916 9.515 20.4166 8.815 20.4166 8.025C20.4166 7.235 20.5866 6.535 20.9266 5.925C21.2766 5.315 21.7516 4.84 22.3516 4.5C22.9616 4.15 23.6466 3.975 24.4066 3.975C25.1766 3.975 25.8566 4.145 26.4466 4.485C27.0366 4.825 27.4966 5.305 27.8266 5.925C28.1666 6.535 28.3366 7.25 28.3366 8.07C28.3366 8.13 28.3316 8.2 28.3216 8.28C28.3216 8.36 28.3166 8.435 28.3066 8.505H21.5416V7.47H27.5566L26.9716 7.83C26.9816 7.32 26.8766 6.865 26.6566 6.465C26.4366 6.065 26.1316 5.755 25.7416 5.535C25.3616 5.305 24.9166 5.19 24.4066 5.19C23.9066 5.19 23.4616 5.305 23.0716 5.535C22.6816 5.755 22.3766 6.07 22.1566 6.48C21.9366 6.88 21.8266 7.34 21.8266 7.86V8.1C21.8266 8.63 21.9466 9.105 22.1866 9.525C22.4366 9.935 22.7816 10.255 23.2216 10.485C23.6616 10.715 24.1666 10.83 24.7366 10.83C25.2066 10.83 25.6316 10.75 26.0116 10.59C26.4016 10.43 26.7416 10.19 27.0316 9.87L27.8266 10.8C27.4666 11.22 27.0166 11.54 26.4766 11.76C25.9466 11.98 25.3516 12.09 24.6916 12.09ZM33.8762 12.09C33.0262 12.09 32.2762 11.915 31.6262 11.565C30.9862 11.215 30.4862 10.735 30.1262 10.125C29.7762 9.515 29.6012 8.815 29.6012 8.025C29.6012 7.235 29.7712 6.535 30.1112 5.925C30.4612 5.315 30.9362 4.84 31.5362 4.5C32.1462 4.15 32.8312 3.975 33.5912 3.975C34.3612 3.975 35.0412 4.145 35.6312 4.485C36.2212 4.825 36.6812 5.305 37.0112 5.925C37.3512 6.535 37.5212 7.25 37.5212 8.07C37.5212 8.13 37.5162 8.2 37.5062 8.28C37.5062 8.36 37.5012 8.435 37.4912 8.505H30.7262V7.47H36.7412L36.1562 7.83C36.1662 7.32 36.0612 6.865 35.8412 6.465C35.6212 6.065 35.3162 5.755 34.9262 5.535C34.5462 5.305 34.1012 5.19 33.5912 5.19C33.0912 5.19 32.6462 5.305 32.2562 5.535C31.8662 5.755 31.5612 6.07 31.3412 6.48C31.1212 6.88 31.0112 7.34 31.0112 7.86V8.1C31.0112 8.63 31.1312 9.105 31.3712 9.525C31.6212 9.935 31.9662 10.255 32.4062 10.485C32.8462 10.715 33.3512 10.83 33.9212 10.83C34.3912 10.83 34.8162 10.75 35.1962 10.59C35.5862 10.43 35.9262 10.19 36.2162 9.87L37.0112 10.8C36.6512 11.22 36.2012 11.54 35.6612 11.76C35.1312 11.98 34.5362 12.09 33.8762 12.09ZM42.8058 12.09C42.0358 12.09 41.3458 11.92 40.7358 11.58C40.1358 11.24 39.6608 10.765 39.3108 10.155C38.9608 9.545 38.7858 8.835 38.7858 8.025C38.7858 7.215 38.9608 6.51 39.3108 5.91C39.6608 5.3 40.1358 4.825 40.7358 4.485C41.3458 4.145 42.0358 3.975 42.8058 3.975C43.4758 3.975 44.0808 4.125 44.6208 4.425C45.1608 4.725 45.5908 5.175 45.9108 5.775C46.2408 6.375 46.4058 7.125 46.4058 8.025C46.4058 8.925 46.2458 9.675 45.9258 10.275C45.6158 10.875 45.1908 11.33 44.6508 11.64C44.1108 11.94 43.4958 12.09 42.8058 12.09ZM42.9258 10.83C43.4258 10.83 43.8758 10.715 44.2758 10.485C44.6858 10.255 45.0058 9.93 45.2358 9.51C45.4758 9.08 45.5958 8.585 45.5958 8.025C45.5958 7.455 45.4758 6.965 45.2358 6.555C45.0058 6.135 44.6858 5.81 44.2758 5.58C43.8758 5.35 43.4258 5.235 42.9258 5.235C42.4158 5.235 41.9608 5.35 41.5608 5.58C41.1608 5.81 40.8408 6.135 40.6008 6.555C40.3608 6.965 40.2408 7.455 40.2408 8.025C40.2408 8.585 40.3608 9.08 40.6008 9.51C40.8408 9.93 41.1608 10.255 41.5608 10.485C41.9608 10.715 42.4158 10.83 42.9258 10.83ZM45.6408 12V9.855L45.7308 8.01L45.5808 6.165V0.869999H47.0208V12H45.6408ZM53.9837 12V1.5H55.4837V10.695H61.1687V12H53.9837ZM62.6799 12V4.05H64.1199V12H62.6799ZM63.3999 2.52C63.1199 2.52 62.8849 2.43 62.6949 2.25C62.5149 2.07 62.4249 1.85 62.4249 1.59C62.4249 1.32 62.5149 1.095 62.6949 0.915C62.8849 0.735 63.1199 0.645 63.3999 0.645C63.6799 0.645 63.9099 0.735 64.0899 0.915C64.2799 1.085 64.3749 1.3 64.3749 1.56C64.3749 1.83 64.2849 2.06 64.1049 2.25C63.9249 2.43 63.6899 2.52 63.3999 2.52ZM76.8144 3.975C77.4544 3.975 78.0194 4.1 78.5094 4.35C78.9994 4.6 79.3794 4.98 79.6494 5.49C79.9294 6 80.0694 6.645 80.0694 7.425V12H78.6294V7.59C78.6294 6.82 78.4494 6.24 78.0894 5.85C77.7294 5.46 77.2244 5.265 76.5744 5.265C76.0944 5.265 75.6744 5.365 75.3144 5.565C74.9544 5.765 74.6744 6.06 74.4744 6.45C74.2844 6.84 74.1894 7.325 74.1894 7.905V12H72.7494V7.59C72.7494 6.82 72.5694 6.24 72.2094 5.85C71.8594 5.46 71.3544 5.265 70.6944 5.265C70.2244 5.265 69.8094 5.365 69.4494 5.565C69.0894 5.765 68.8094 6.06 68.6094 6.45C68.4094 6.84 68.3094 7.325 68.3094 7.905V12H66.8694V4.05H68.2494V6.165L68.0244 5.625C68.2744 5.105 68.6594 4.7 69.1794 4.41C69.6994 4.12 70.3044 3.975 70.9944 3.975C71.7544 3.975 72.4094 4.165 72.9594 4.545C73.5094 4.915 73.8694 5.48 74.0394 6.24L73.4544 6C73.6944 5.39 74.1144 4.9 74.7144 4.53C75.3144 4.16 76.0144 3.975 76.8144 3.975ZM82.719 12V4.05H84.159V12H82.719ZM83.439 2.52C83.159 2.52 82.924 2.43 82.734 2.25C82.554 2.07 82.464 1.85 82.464 1.59C82.464 1.32 82.554 1.095 82.734 0.915C82.924 0.735 83.159 0.645 83.439 0.645C83.719 0.645 83.949 0.735 84.129 0.915C84.319 1.085 84.414 1.3 84.414 1.56C84.414 1.83 84.324 2.06 84.144 2.25C83.964 2.43 83.729 2.52 83.439 2.52ZM89.6385 12.09C88.8385 12.09 88.2185 11.875 87.7785 11.445C87.3385 11.015 87.1185 10.4 87.1185 9.6V2.31H88.5585V9.54C88.5585 9.97 88.6635 10.3 88.8735 10.53C89.0935 10.76 89.4035 10.875 89.8035 10.875C90.2535 10.875 90.6285 10.75 90.9285 10.5L91.3785 11.535C91.1585 11.725 90.8935 11.865 90.5835 11.955C90.2835 12.045 89.9685 12.09 89.6385 12.09ZM85.7685 5.235V4.05H90.8385V5.235H85.7685Z" fill="white"/>
</svg>
