<svg width="340" height="100" viewBox="0 0 340 100" fill="none" xmlns="http://www.w3.org/2000/svg">
<path d="M43 70V31" stroke="white" stroke-opacity="0.4" stroke-width="6" stroke-linecap="round"/>
<path fill-rule="evenodd" clip-rule="evenodd" d="M73 35.9999L55.836 26.4644C57.696 28.1887 59.0506 30.4506 59.6529 33.003C48.7673 33.1882 40 42.0703 40 53V70C40 71.6569 41.3431 73 43 73C44.6569 73 46 71.6569 46 70V53C46 45.3846 52.0803 39.1894 59.6511 39.0043C59.048 41.5537 57.6942 43.8128 55.836 45.5355L73 35.9999Z" fill="#007BE4"/>
<path d="M103.92 63.04H111.12V64.74H103.92V63.04ZM104.1 69.26H112.26V71H102.1V57H111.98V58.74H104.1V69.26ZM113.444 71L118.004 65.08L117.984 66.06L113.644 60.4H115.784L119.104 64.76H118.284L121.604 60.4H123.704L119.304 66.1L119.324 65.08L123.924 71H121.744L118.244 66.36L119.024 66.48L115.584 71H113.444ZM126.019 71V60.4H127.939V71H126.019ZM126.979 58.36C126.606 58.36 126.293 58.24 126.039 58C125.799 57.76 125.679 57.4667 125.679 57.12C125.679 56.76 125.799 56.46 126.039 56.22C126.293 55.98 126.606 55.86 126.979 55.86C127.353 55.86 127.659 55.98 127.899 56.22C128.153 56.4467 128.279 56.7333 128.279 57.08C128.279 57.44 128.159 57.7467 127.919 58C127.679 58.24 127.366 58.36 126.979 58.36ZM135.245 71.12C134.178 71.12 133.352 70.8333 132.765 70.26C132.178 69.6867 131.885 68.8667 131.885 67.8V58.08H133.805V67.72C133.805 68.2933 133.945 68.7333 134.225 69.04C134.518 69.3467 134.932 69.5 135.465 69.5C136.065 69.5 136.565 69.3333 136.965 69L137.565 70.38C137.272 70.6333 136.918 70.82 136.505 70.94C136.105 71.06 135.685 71.12 135.245 71.12ZM130.085 61.98V60.4H136.845V61.98H130.085ZM149.858 71.16C148.724 71.16 147.744 70.9933 146.918 70.66C146.091 70.3267 145.451 69.8533 144.998 69.24C144.544 68.6133 144.318 67.88 144.318 67.04C144.318 66.2133 144.531 65.5133 144.958 64.94C145.398 64.3533 146.031 63.9133 146.858 63.62C147.684 63.3133 148.684 63.16 149.858 63.16C151.031 63.16 152.031 63.3133 152.858 63.62C153.698 63.9133 154.338 64.3533 154.778 64.94C155.218 65.5267 155.438 66.2267 155.438 67.04C155.438 67.88 155.211 68.6133 154.758 69.24C154.304 69.8533 153.658 70.3267 152.818 70.66C151.978 70.9933 150.991 71.16 149.858 71.16ZM149.858 69.54C150.978 69.54 151.851 69.3133 152.478 68.86C153.118 68.3933 153.438 67.7667 153.438 66.98C153.438 66.2067 153.118 65.6 152.478 65.16C151.851 64.7067 150.978 64.48 149.858 64.48C148.751 64.48 147.884 64.7067 147.258 65.16C146.631 65.6 146.318 66.2067 146.318 66.98C146.318 67.7667 146.631 68.3933 147.258 68.86C147.884 69.3133 148.751 69.54 149.858 69.54ZM149.858 64.24C148.791 64.24 147.884 64.1 147.138 63.82C146.391 63.5267 145.818 63.1133 145.418 62.58C145.018 62.0333 144.818 61.3867 144.818 60.64C144.818 59.8533 145.024 59.18 145.438 58.62C145.864 58.0467 146.458 57.6067 147.218 57.3C147.978 56.9933 148.858 56.84 149.858 56.84C150.871 56.84 151.758 56.9933 152.518 57.3C153.278 57.6067 153.871 58.0467 154.298 58.62C154.724 59.18 154.938 59.8533 154.938 60.64C154.938 61.3867 154.738 62.0333 154.338 62.58C153.938 63.1133 153.358 63.5267 152.598 63.82C151.838 64.1 150.924 64.24 149.858 64.24ZM149.858 62.96C150.831 62.96 151.591 62.76 152.138 62.36C152.698 61.96 152.978 61.4133 152.978 60.72C152.978 60.0133 152.691 59.46 152.118 59.06C151.544 58.66 150.791 58.46 149.858 58.46C148.924 58.46 148.178 58.66 147.618 59.06C147.071 59.46 146.798 60.0133 146.798 60.72C146.798 61.4133 147.064 61.96 147.598 62.36C148.144 62.76 148.898 62.96 149.858 62.96ZM159.689 71L165.629 57.84L166.149 58.74H157.829L158.829 57.76V61.24H156.909V57H167.469V58.36L161.809 71H159.689Z" fill="white" fill-opacity="0.4"/>
<path d="M103.48 44V30.6L104.12 31.28H100.18V30H104.92V44H103.48ZM109.347 44.1C109.053 44.1 108.8 43.9933 108.587 43.78C108.387 43.5667 108.287 43.3067 108.287 43C108.287 42.68 108.387 42.42 108.587 42.22C108.8 42.02 109.053 41.92 109.347 41.92C109.64 41.92 109.887 42.02 110.087 42.22C110.3 42.42 110.407 42.68 110.407 43C110.407 43.3067 110.3 43.5667 110.087 43.78C109.887 43.9933 109.64 44.1 109.347 44.1ZM116.925 44.12C115.925 44.12 114.972 43.96 114.065 43.64C113.158 43.3067 112.438 42.8667 111.905 42.32L112.605 41.18C113.045 41.6467 113.645 42.0333 114.405 42.34C115.178 42.6467 116.012 42.8 116.905 42.8C118.092 42.8 118.992 42.54 119.605 42.02C120.232 41.4867 120.545 40.7933 120.545 39.94C120.545 39.34 120.398 38.8267 120.105 38.4C119.825 37.96 119.345 37.62 118.665 37.38C117.985 37.14 117.052 37.02 115.865 37.02H112.885L113.605 30H121.265V31.28H114.185L114.925 30.58L114.305 36.46L113.565 35.74H116.185C117.598 35.74 118.732 35.9133 119.585 36.26C120.438 36.6067 121.052 37.0933 121.425 37.72C121.812 38.3333 122.005 39.0533 122.005 39.88C122.005 40.6667 121.818 41.3867 121.445 42.04C121.072 42.68 120.512 43.1867 119.765 43.56C119.018 43.9333 118.072 44.12 116.925 44.12ZM143.127 33.4C143.981 33.4 144.721 33.5667 145.347 33.9C145.987 34.22 146.481 34.7133 146.827 35.38C147.187 36.0467 147.367 36.8867 147.367 37.9V44H145.947V38.04C145.947 36.9333 145.681 36.1 145.147 35.54C144.627 34.9667 143.887 34.68 142.927 34.68C142.207 34.68 141.581 34.8333 141.047 35.14C140.527 35.4333 140.121 35.8667 139.827 36.44C139.547 37 139.407 37.68 139.407 38.48V44H137.987V38.04C137.987 36.9333 137.721 36.1 137.187 35.54C136.654 34.9667 135.907 34.68 134.947 34.68C134.241 34.68 133.621 34.8333 133.087 35.14C132.554 35.4333 132.141 35.8667 131.847 36.44C131.567 37 131.427 37.68 131.427 38.48V44H130.007V33.5H131.367V36.34L131.147 35.84C131.467 35.08 131.981 34.4867 132.687 34.06C133.407 33.62 134.254 33.4 135.227 33.4C136.254 33.4 137.127 33.66 137.847 34.18C138.567 34.6867 139.034 35.4533 139.247 36.48L138.687 36.26C138.994 35.4067 139.534 34.72 140.307 34.2C141.094 33.6667 142.034 33.4 143.127 33.4ZM151.218 44V33.5H152.638V44H151.218ZM151.938 31.18C151.645 31.18 151.398 31.08 151.198 30.88C150.998 30.68 150.898 30.44 150.898 30.16C150.898 29.88 150.998 29.6467 151.198 29.46C151.398 29.26 151.645 29.16 151.938 29.16C152.232 29.16 152.478 29.2533 152.678 29.44C152.878 29.6267 152.978 29.86 152.978 30.14C152.978 30.4333 152.878 30.68 152.678 30.88C152.492 31.08 152.245 31.18 151.938 31.18Z" fill="#7F97A0"/>
</svg>
