<svg width="340" height="100" viewBox="0 0 340 100" fill="none" xmlns="http://www.w3.org/2000/svg">
<g opacity="0.4">
<path d="M55 70V32" stroke="white" stroke-opacity="0.6" stroke-width="6" stroke-linecap="round"/>
<path fill-rule="evenodd" clip-rule="evenodd" d="M25 36.9999L42.164 27.4644C40.304 29.1887 38.9494 31.4506 38.3471 34.003C49.2327 34.1882 58 43.0703 58 54V70C58 71.6569 56.6569 73 55 73C53.3431 73 52 71.6569 52 70V54C52 46.3846 45.9197 40.1894 38.3489 40.0043C38.952 42.5537 40.3058 44.8128 42.164 46.5355L25 36.9999Z" fill="white"/>
</g>
<path d="M112.14 57H114.14V71H112.14V57ZM104.1 71H102.1V57H104.1V71ZM112.32 64.76H103.9V63.02H112.32V64.76ZM118.05 71V60.4H119.97V71H118.05ZM119.01 58.36C118.637 58.36 118.324 58.24 118.07 58C117.83 57.76 117.71 57.4667 117.71 57.12C117.71 56.76 117.83 56.46 118.07 56.22C118.324 55.98 118.637 55.86 119.01 55.86C119.384 55.86 119.69 55.98 119.93 56.22C120.184 56.4467 120.31 56.7333 120.31 57.08C120.31 57.44 120.19 57.7467 119.95 58C119.71 58.24 119.397 58.36 119.01 58.36ZM128.276 75C127.303 75 126.356 74.86 125.436 74.58C124.53 74.3133 123.79 73.9267 123.216 73.42L124.136 71.94C124.63 72.3667 125.236 72.7 125.956 72.94C126.676 73.1933 127.43 73.32 128.216 73.32C129.47 73.32 130.39 73.0267 130.976 72.44C131.563 71.8533 131.856 70.96 131.856 69.76V67.52L132.056 65.42L131.956 63.3V60.4H133.776V69.56C133.776 71.4267 133.31 72.8 132.376 73.68C131.443 74.56 130.076 75 128.276 75ZM128.036 70.56C127.01 70.56 126.09 70.3467 125.276 69.92C124.476 69.48 123.836 68.8733 123.356 68.1C122.89 67.3267 122.656 66.4333 122.656 65.42C122.656 64.3933 122.89 63.5 123.356 62.74C123.836 61.9667 124.476 61.3667 125.276 60.94C126.09 60.5133 127.01 60.3 128.036 60.3C128.943 60.3 129.77 60.4867 130.516 60.86C131.263 61.22 131.856 61.78 132.296 62.54C132.75 63.3 132.976 64.26 132.976 65.42C132.976 66.5667 132.75 67.52 132.296 68.28C131.856 69.04 131.263 69.6133 130.516 70C129.77 70.3733 128.943 70.56 128.036 70.56ZM128.256 68.88C128.963 68.88 129.59 68.7333 130.136 68.44C130.683 68.1467 131.11 67.74 131.416 67.22C131.736 66.7 131.896 66.1 131.896 65.42C131.896 64.74 131.736 64.14 131.416 63.62C131.11 63.1 130.683 62.7 130.136 62.42C129.59 62.1267 128.963 61.98 128.256 61.98C127.55 61.98 126.916 62.1267 126.356 62.42C125.81 62.7 125.376 63.1 125.056 63.62C124.75 64.14 124.596 64.74 124.596 65.42C124.596 66.1 124.75 66.7 125.056 67.22C125.376 67.74 125.81 68.1467 126.356 68.44C126.916 68.7333 127.55 68.88 128.256 68.88ZM143.105 60.3C143.972 60.3 144.732 60.4667 145.385 60.8C146.052 61.1333 146.572 61.64 146.945 62.32C147.318 63 147.505 63.86 147.505 64.9V71H145.585V65.12C145.585 64.0933 145.332 63.32 144.825 62.8C144.332 62.28 143.632 62.02 142.725 62.02C142.045 62.02 141.452 62.1533 140.945 62.42C140.438 62.6867 140.045 63.08 139.765 63.6C139.498 64.12 139.365 64.7667 139.365 65.54V71H137.445V56.16H139.365V63.26L138.985 62.5C139.332 61.8067 139.865 61.2667 140.585 60.88C141.305 60.4933 142.145 60.3 143.105 60.3ZM153.103 71L149.163 60.4H150.983L154.483 70H153.623L157.263 60.4H158.883L162.443 70H161.603L165.183 60.4H166.903L162.943 71H161.103L157.763 62.24H158.323L154.943 71H153.103ZM175.099 71V68.76L174.999 68.34V64.52C174.999 63.7067 174.759 63.08 174.279 62.64C173.813 62.1867 173.106 61.96 172.159 61.96C171.533 61.96 170.919 62.0667 170.319 62.28C169.719 62.48 169.213 62.7533 168.799 63.1L167.999 61.66C168.546 61.22 169.199 60.8867 169.959 60.66C170.733 60.42 171.539 60.3 172.379 60.3C173.833 60.3 174.953 60.6533 175.739 61.36C176.526 62.0667 176.919 63.1467 176.919 64.6V71H175.099ZM171.619 71.12C170.833 71.12 170.139 70.9867 169.539 70.72C168.953 70.4533 168.499 70.0867 168.179 69.62C167.859 69.14 167.699 68.6 167.699 68C167.699 67.4267 167.833 66.9067 168.099 66.44C168.379 65.9733 168.826 65.6 169.439 65.32C170.066 65.04 170.906 64.9 171.959 64.9H175.319V66.28H172.039C171.079 66.28 170.433 66.44 170.099 66.76C169.766 67.08 169.599 67.4667 169.599 67.92C169.599 68.44 169.806 68.86 170.219 69.18C170.633 69.4867 171.206 69.64 171.939 69.64C172.659 69.64 173.286 69.48 173.819 69.16C174.366 68.84 174.759 68.3733 174.999 67.76L175.379 69.08C175.126 69.7067 174.679 70.2067 174.039 70.58C173.399 70.94 172.593 71.12 171.619 71.12ZM180.737 75C180.23 75 179.737 74.9133 179.257 74.74C178.777 74.58 178.364 74.34 178.017 74.02L178.837 72.58C179.104 72.8333 179.397 73.0267 179.717 73.16C180.037 73.2933 180.377 73.36 180.737 73.36C181.204 73.36 181.59 73.24 181.897 73C182.204 72.76 182.49 72.3333 182.757 71.72L183.417 70.26L183.617 70.02L187.777 60.4H189.657L184.517 72.06C184.21 72.8067 183.864 73.3933 183.477 73.82C183.104 74.2467 182.69 74.5467 182.237 74.72C181.784 74.9067 181.284 75 180.737 75ZM183.257 71.34L178.417 60.4H180.417L184.537 69.84L183.257 71.34ZM195.76 67.56V66.16L202.92 57H205.08L197.98 66.16L196.96 65.84H208.14V67.56H195.76ZM203.54 71V67.56L203.6 65.84V62.8H205.48V71H203.54ZM215.059 71.16C213.966 71.16 212.986 70.88 212.119 70.32C211.266 69.76 210.586 68.9467 210.079 67.88C209.586 66.8133 209.339 65.52 209.339 64C209.339 62.48 209.586 61.1867 210.079 60.12C210.586 59.0533 211.266 58.24 212.119 57.68C212.986 57.12 213.966 56.84 215.059 56.84C216.139 56.84 217.112 57.12 217.979 57.68C218.846 58.24 219.526 59.0533 220.019 60.12C220.512 61.1867 220.759 62.48 220.759 64C220.759 65.52 220.512 66.8133 220.019 67.88C219.526 68.9467 218.846 69.76 217.979 70.32C217.112 70.88 216.139 71.16 215.059 71.16ZM215.059 69.38C215.792 69.38 216.432 69.18 216.979 68.78C217.539 68.38 217.972 67.78 218.279 66.98C218.599 66.18 218.759 65.1867 218.759 64C218.759 62.8133 218.599 61.82 218.279 61.02C217.972 60.22 217.539 59.62 216.979 59.22C216.432 58.82 215.792 58.62 215.059 58.62C214.326 58.62 213.679 58.82 213.119 59.22C212.559 59.62 212.119 60.22 211.799 61.02C211.492 61.82 211.339 62.8133 211.339 64C211.339 65.1867 211.492 66.18 211.799 66.98C212.119 67.78 212.559 68.38 213.119 68.78C213.679 69.18 214.326 69.38 215.059 69.38ZM228.399 71.16C227.305 71.16 226.325 70.88 225.459 70.32C224.605 69.76 223.925 68.9467 223.419 67.88C222.925 66.8133 222.679 65.52 222.679 64C222.679 62.48 222.925 61.1867 223.419 60.12C223.925 59.0533 224.605 58.24 225.459 57.68C226.325 57.12 227.305 56.84 228.399 56.84C229.479 56.84 230.452 57.12 231.319 57.68C232.185 58.24 232.865 59.0533 233.359 60.12C233.852 61.1867 234.099 62.48 234.099 64C234.099 65.52 233.852 66.8133 233.359 67.88C232.865 68.9467 232.185 69.76 231.319 70.32C230.452 70.88 229.479 71.16 228.399 71.16ZM228.399 69.38C229.132 69.38 229.772 69.18 230.319 68.78C230.879 68.38 231.312 67.78 231.619 66.98C231.939 66.18 232.099 65.1867 232.099 64C232.099 62.8133 231.939 61.82 231.619 61.02C231.312 60.22 230.879 59.62 230.319 59.22C229.772 58.82 229.132 58.62 228.399 58.62C227.665 58.62 227.019 58.82 226.459 59.22C225.899 59.62 225.459 60.22 225.139 61.02C224.832 61.82 224.679 62.8133 224.679 64C224.679 65.1867 224.832 66.18 225.139 66.98C225.459 67.78 225.899 68.38 226.459 68.78C227.019 69.18 227.665 69.38 228.399 69.38Z" fill="white" fill-opacity="0.4"/>
<path d="M102.12 44.1C101.827 44.1 101.573 43.9933 101.36 43.78C101.16 43.5667 101.06 43.3067 101.06 43C101.06 42.68 101.16 42.42 101.36 42.22C101.573 42.02 101.827 41.92 102.12 41.92C102.413 41.92 102.66 42.02 102.86 42.22C103.073 42.42 103.18 42.68 103.18 43C103.18 43.3067 103.073 43.5667 102.86 43.78C102.66 43.9933 102.413 44.1 102.12 44.1ZM107.504 44L113.544 30.64L113.984 31.28H105.324L106.064 30.58V33.9H104.644V30H114.924V31.02L109.064 44H107.504ZM120.87 44.12C119.87 44.12 118.917 43.96 118.01 43.64C117.103 43.3067 116.383 42.8667 115.85 42.32L116.55 41.18C116.99 41.6467 117.59 42.0333 118.35 42.34C119.123 42.6467 119.957 42.8 120.85 42.8C122.037 42.8 122.937 42.54 123.55 42.02C124.177 41.4867 124.49 40.7933 124.49 39.94C124.49 39.34 124.343 38.8267 124.05 38.4C123.77 37.96 123.29 37.62 122.61 37.38C121.93 37.14 120.997 37.02 119.81 37.02H116.83L117.55 30H125.21V31.28H118.13L118.87 30.58L118.25 36.46L117.51 35.74H120.13C121.543 35.74 122.677 35.9133 123.53 36.26C124.383 36.6067 124.997 37.0933 125.37 37.72C125.757 38.3333 125.95 39.0533 125.95 39.88C125.95 40.6667 125.763 41.3867 125.39 42.04C125.017 42.68 124.457 43.1867 123.71 43.56C122.963 43.9333 122.017 44.12 120.87 44.12ZM147.073 33.4C147.926 33.4 148.666 33.5667 149.293 33.9C149.933 34.22 150.426 34.7133 150.773 35.38C151.133 36.0467 151.313 36.8867 151.313 37.9V44H149.893V38.04C149.893 36.9333 149.626 36.1 149.093 35.54C148.573 34.9667 147.833 34.68 146.873 34.68C146.153 34.68 145.526 34.8333 144.993 35.14C144.473 35.4333 144.066 35.8667 143.773 36.44C143.493 37 143.353 37.68 143.353 38.48V44H141.933V38.04C141.933 36.9333 141.666 36.1 141.133 35.54C140.599 34.9667 139.853 34.68 138.893 34.68C138.186 34.68 137.566 34.8333 137.033 35.14C136.499 35.4333 136.086 35.8667 135.793 36.44C135.513 37 135.373 37.68 135.373 38.48V44H133.953V33.5H135.313V36.34L135.093 35.84C135.413 35.08 135.926 34.4867 136.633 34.06C137.353 33.62 138.199 33.4 139.173 33.4C140.199 33.4 141.073 33.66 141.793 34.18C142.513 34.6867 142.979 35.4533 143.193 36.48L142.633 36.26C142.939 35.4067 143.479 34.72 144.253 34.2C145.039 33.6667 145.979 33.4 147.073 33.4ZM155.164 44V33.5H156.584V44H155.164ZM155.884 31.18C155.59 31.18 155.344 31.08 155.144 30.88C154.944 30.68 154.844 30.44 154.844 30.16C154.844 29.88 154.944 29.6467 155.144 29.46C155.344 29.26 155.59 29.16 155.884 29.16C156.177 29.16 156.424 29.2533 156.624 29.44C156.824 29.6267 156.924 29.86 156.924 30.14C156.924 30.4333 156.824 30.68 156.624 30.88C156.437 31.08 156.19 31.18 155.884 31.18Z" fill="#7F97A0"/>
</svg>
