<svg width="340" height="100" viewBox="0 0 340 100" fill="none" xmlns="http://www.w3.org/2000/svg">
<g opacity="0.4">
<path fill-rule="evenodd" clip-rule="evenodd" d="M51 31C51 29.3431 49.6569 28 48 28C46.3431 28 45 29.3431 45 31V46H30.5C28.8431 46 27.5 47.3431 27.5 49C27.5 50.6569 28.8431 52 30.5 52H45V67C45 68.6569 46.3431 70 48 70C49.6569 70 51 68.6569 51 67V52H65.5C67.1569 52 68.5 50.6569 68.5 49C68.5 47.3431 67.1569 46 65.5 46H51V31Z" fill="white" fill-opacity="0.6"/>
<path fill-rule="evenodd" clip-rule="evenodd" d="M59.7667 45.9999C59.3385 43.7681 58.3395 41.7391 56.9276 40.0708L73 48.9999L55 58.9999V58.712C57.1475 57.0331 58.7537 54.694 59.5134 51.9999H51V66.9999C51 68.6568 49.6569 69.9999 48 69.9999C46.3431 69.9999 45 68.6568 45 66.9999V48.9999C45 47.3431 46.3431 45.9999 48 45.9999H59.7667Z" fill="white"/>
</g>
<path d="M102.1 71V57H103.74L110.02 67.58H109.14L115.34 57H116.98L117 71H115.08L115.06 60.02H115.52L110 69.3H109.08L103.52 60.02H104.02V71H102.1ZM127.502 71V68.76L127.402 68.34V64.52C127.402 63.7067 127.162 63.08 126.682 62.64C126.215 62.1867 125.508 61.96 124.562 61.96C123.935 61.96 123.322 62.0667 122.722 62.28C122.122 62.48 121.615 62.7533 121.202 63.1L120.402 61.66C120.948 61.22 121.602 60.8867 122.362 60.66C123.135 60.42 123.942 60.3 124.782 60.3C126.235 60.3 127.355 60.6533 128.142 61.36C128.928 62.0667 129.322 63.1467 129.322 64.6V71H127.502ZM124.022 71.12C123.235 71.12 122.542 70.9867 121.942 70.72C121.355 70.4533 120.902 70.0867 120.582 69.62C120.262 69.14 120.102 68.6 120.102 68C120.102 67.4267 120.235 66.9067 120.502 66.44C120.782 65.9733 121.228 65.6 121.842 65.32C122.468 65.04 123.308 64.9 124.362 64.9H127.722V66.28H124.442C123.482 66.28 122.835 66.44 122.502 66.76C122.168 67.08 122.002 67.4667 122.002 67.92C122.002 68.44 122.208 68.86 122.622 69.18C123.035 69.4867 123.608 69.64 124.342 69.64C125.062 69.64 125.688 69.48 126.222 69.16C126.768 68.84 127.162 68.3733 127.402 67.76L127.782 69.08C127.528 69.7067 127.082 70.2067 126.442 70.58C125.802 70.94 124.995 71.12 124.022 71.12ZM138.535 60.3C139.401 60.3 140.161 60.4667 140.815 60.8C141.481 61.1333 142.001 61.64 142.375 62.32C142.748 63 142.935 63.86 142.935 64.9V71H141.015V65.12C141.015 64.0933 140.761 63.32 140.255 62.8C139.761 62.28 139.061 62.02 138.155 62.02C137.475 62.02 136.881 62.1533 136.375 62.42C135.868 62.6867 135.475 63.08 135.195 63.6C134.928 64.12 134.795 64.7667 134.795 65.54V71H132.875V60.4H134.715V63.26L134.415 62.5C134.761 61.8067 135.295 61.2667 136.015 60.88C136.735 60.4933 137.575 60.3 138.535 60.3ZM149.528 71.12C148.648 71.12 147.808 71 147.008 70.76C146.221 70.52 145.601 70.2267 145.148 69.88L145.948 68.36C146.401 68.6667 146.961 68.9267 147.628 69.14C148.295 69.3533 148.975 69.46 149.668 69.46C150.561 69.46 151.201 69.3333 151.588 69.08C151.988 68.8267 152.188 68.4733 152.188 68.02C152.188 67.6867 152.068 67.4267 151.828 67.24C151.588 67.0533 151.268 66.9133 150.868 66.82C150.481 66.7267 150.048 66.6467 149.568 66.58C149.088 66.5 148.608 66.4067 148.128 66.3C147.648 66.18 147.208 66.02 146.808 65.82C146.408 65.6067 146.088 65.32 145.848 64.96C145.608 64.5867 145.488 64.0933 145.488 63.48C145.488 62.84 145.668 62.28 146.028 61.8C146.388 61.32 146.895 60.9533 147.548 60.7C148.215 60.4333 149.001 60.3 149.908 60.3C150.601 60.3 151.301 60.3867 152.008 60.56C152.728 60.72 153.315 60.9533 153.768 61.26L152.948 62.78C152.468 62.46 151.968 62.24 151.448 62.12C150.928 62 150.408 61.94 149.888 61.94C149.048 61.94 148.421 62.08 148.008 62.36C147.595 62.6267 147.388 62.9733 147.388 63.4C147.388 63.76 147.508 64.04 147.748 64.24C148.001 64.4267 148.321 64.5733 148.708 64.68C149.108 64.7867 149.548 64.88 150.028 64.96C150.508 65.0267 150.988 65.12 151.468 65.24C151.948 65.3467 152.381 65.5 152.768 65.7C153.168 65.9 153.488 66.18 153.728 66.54C153.981 66.9 154.108 67.38 154.108 67.98C154.108 68.62 153.921 69.1733 153.548 69.64C153.175 70.1067 152.648 70.4733 151.968 70.74C151.288 70.9933 150.475 71.12 149.528 71.12ZM161.228 71.12C160.094 71.12 159.094 70.8867 158.228 70.42C157.374 69.9533 156.708 69.3133 156.228 68.5C155.761 67.6867 155.528 66.7533 155.528 65.7C155.528 64.6467 155.754 63.7133 156.208 62.9C156.674 62.0867 157.308 61.4533 158.108 61C158.921 60.5333 159.834 60.3 160.848 60.3C161.874 60.3 162.781 60.5267 163.568 60.98C164.354 61.4333 164.968 62.0733 165.408 62.9C165.861 63.7133 166.088 64.6667 166.088 65.76C166.088 65.84 166.081 65.9333 166.068 66.04C166.068 66.1467 166.061 66.2467 166.048 66.34H157.028V64.96H165.048L164.268 65.44C164.281 64.76 164.141 64.1533 163.848 63.62C163.554 63.0867 163.148 62.6733 162.628 62.38C162.121 62.0733 161.528 61.92 160.848 61.92C160.181 61.92 159.588 62.0733 159.068 62.38C158.548 62.6733 158.141 63.0933 157.848 63.64C157.554 64.1733 157.408 64.7867 157.408 65.48V65.8C157.408 66.5067 157.568 67.14 157.888 67.7C158.221 68.2467 158.681 68.6733 159.268 68.98C159.854 69.2867 160.528 69.44 161.288 69.44C161.914 69.44 162.481 69.3333 162.988 69.12C163.508 68.9067 163.961 68.5867 164.348 68.16L165.408 69.4C164.928 69.96 164.328 70.3867 163.608 70.68C162.901 70.9733 162.108 71.12 161.228 71.12ZM168.754 71V56.16H170.674V71H168.754ZM174.34 71V56.16H176.26V71H174.34ZM185.577 71V57H191.037C192.263 57 193.31 57.1933 194.177 57.58C195.043 57.9667 195.71 58.5267 196.177 59.26C196.643 59.9933 196.877 60.8667 196.877 61.88C196.877 62.8933 196.643 63.7667 196.177 64.5C195.71 65.22 195.043 65.7733 194.177 66.16C193.31 66.5467 192.263 66.74 191.037 66.74H186.677L187.577 65.82V71H185.577ZM194.937 71L191.377 65.92H193.517L197.117 71H194.937ZM187.577 66.02L186.677 65.04H190.977C192.257 65.04 193.223 64.7667 193.877 64.22C194.543 63.66 194.877 62.88 194.877 61.88C194.877 60.88 194.543 60.1067 193.877 59.56C193.223 59.0133 192.257 58.74 190.977 58.74H186.677L187.577 57.74V66.02ZM204.208 71.12C203.181 71.12 202.261 70.8933 201.448 70.44C200.648 69.9867 200.014 69.3533 199.548 68.54C199.081 67.7267 198.848 66.78 198.848 65.7C198.848 64.62 199.081 63.68 199.548 62.88C200.014 62.0667 200.648 61.4333 201.448 60.98C202.261 60.5267 203.181 60.3 204.208 60.3C205.101 60.3 205.908 60.5 206.628 60.9C207.348 61.3 207.921 61.9 208.348 62.7C208.788 63.5 209.008 64.5 209.008 65.7C209.008 66.9 208.794 67.9 208.368 68.7C207.954 69.5 207.388 70.1067 206.668 70.52C205.948 70.92 205.128 71.12 204.208 71.12ZM204.368 69.44C205.034 69.44 205.634 69.2867 206.168 68.98C206.714 68.6733 207.141 68.24 207.448 67.68C207.768 67.1067 207.928 66.4467 207.928 65.7C207.928 64.94 207.768 64.2867 207.448 63.74C207.141 63.18 206.714 62.7467 206.168 62.44C205.634 62.1333 205.034 61.98 204.368 61.98C203.688 61.98 203.081 62.1333 202.548 62.44C202.014 62.7467 201.588 63.18 201.268 63.74C200.948 64.2867 200.788 64.94 200.788 65.7C200.788 66.4467 200.948 67.1067 201.268 67.68C201.588 68.24 202.014 68.6733 202.548 68.98C203.081 69.2867 203.688 69.44 204.368 69.44ZM207.988 71V68.14L208.108 65.68L207.908 63.22V56.16H209.828V71H207.988Z" fill="white" fill-opacity="0.4"/>
<path d="M103.48 44V30.6L104.12 31.28H100.18V30H104.92V44H103.48ZM113.587 44.12C112.467 44.12 111.5 43.96 110.687 43.64C109.887 43.32 109.267 42.86 108.827 42.26C108.4 41.6467 108.187 40.9267 108.187 40.1C108.187 39.3 108.393 38.62 108.807 38.06C109.233 37.4867 109.847 37.0467 110.647 36.74C111.46 36.4333 112.44 36.28 113.587 36.28C114.72 36.28 115.693 36.4333 116.507 36.74C117.32 37.0467 117.94 37.4867 118.367 38.06C118.807 38.62 119.027 39.3 119.027 40.1C119.027 40.9267 118.807 41.6467 118.367 42.26C117.927 42.86 117.3 43.32 116.487 43.64C115.673 43.96 114.707 44.12 113.587 44.12ZM113.587 42.9C114.827 42.9 115.793 42.6467 116.487 42.14C117.193 41.6333 117.547 40.9467 117.547 40.08C117.547 39.2133 117.193 38.5333 116.487 38.04C115.793 37.5333 114.827 37.28 113.587 37.28C112.347 37.28 111.38 37.5333 110.687 38.04C109.993 38.5333 109.647 39.2133 109.647 40.08C109.647 40.9467 109.993 41.6333 110.687 42.14C111.38 42.6467 112.347 42.9 113.587 42.9ZM113.587 37.1C112.547 37.1 111.66 36.96 110.927 36.68C110.207 36.4 109.653 36 109.267 35.48C108.88 34.9467 108.687 34.3133 108.687 33.58C108.687 32.8067 108.887 32.1467 109.287 31.6C109.7 31.04 110.273 30.6133 111.007 30.32C111.74 30.0267 112.6 29.88 113.587 29.88C114.573 29.88 115.433 30.0267 116.167 30.32C116.913 30.6133 117.493 31.04 117.907 31.6C118.32 32.1467 118.527 32.8067 118.527 33.58C118.527 34.3133 118.333 34.9467 117.947 35.48C117.56 36 116.993 36.4 116.247 36.68C115.513 36.96 114.627 37.1 113.587 37.1ZM113.587 36.14C114.68 36.14 115.533 35.9133 116.147 35.46C116.76 35.0067 117.067 34.4 117.067 33.64C117.067 32.84 116.747 32.22 116.107 31.78C115.48 31.3267 114.64 31.1 113.587 31.1C112.533 31.1 111.693 31.3267 111.067 31.78C110.44 32.22 110.127 32.8333 110.127 33.62C110.127 34.3933 110.427 35.0067 111.027 35.46C111.64 35.9133 112.493 36.14 113.587 36.14ZM140.315 33.4C141.168 33.4 141.908 33.5667 142.535 33.9C143.175 34.22 143.668 34.7133 144.015 35.38C144.375 36.0467 144.555 36.8867 144.555 37.9V44H143.135V38.04C143.135 36.9333 142.868 36.1 142.335 35.54C141.815 34.9667 141.075 34.68 140.115 34.68C139.395 34.68 138.768 34.8333 138.235 35.14C137.715 35.4333 137.308 35.8667 137.015 36.44C136.735 37 136.595 37.68 136.595 38.48V44H135.175V38.04C135.175 36.9333 134.908 36.1 134.375 35.54C133.842 34.9667 133.095 34.68 132.135 34.68C131.428 34.68 130.808 34.8333 130.275 35.14C129.742 35.4333 129.328 35.8667 129.035 36.44C128.755 37 128.615 37.68 128.615 38.48V44H127.195V33.5H128.555V36.34L128.335 35.84C128.655 35.08 129.168 34.4867 129.875 34.06C130.595 33.62 131.442 33.4 132.415 33.4C133.442 33.4 134.315 33.66 135.035 34.18C135.755 34.6867 136.222 35.4533 136.435 36.48L135.875 36.26C136.182 35.4067 136.722 34.72 137.495 34.2C138.282 33.6667 139.222 33.4 140.315 33.4ZM148.406 44V33.5H149.826V44H148.406ZM149.126 31.18C148.832 31.18 148.586 31.08 148.386 30.88C148.186 30.68 148.086 30.44 148.086 30.16C148.086 29.88 148.186 29.6467 148.386 29.46C148.586 29.26 148.832 29.16 149.126 29.16C149.419 29.16 149.666 29.2533 149.866 29.44C150.066 29.6267 150.166 29.86 150.166 30.14C150.166 30.4333 150.066 30.68 149.866 30.88C149.679 31.08 149.432 31.18 149.126 31.18Z" fill="#7F97A0"/>
</svg>
