<svg width="340" height="80" viewBox="0 0 340 80" fill="none" xmlns="http://www.w3.org/2000/svg">
<g clip-path="url(#clip0_455765_5609)">
<path d="M20.2778 47V45.64L25.9778 40.14C26.4844 39.66 26.8578 39.24 27.0978 38.88C27.3511 38.5067 27.5178 38.1667 27.5978 37.86C27.6911 37.54 27.7378 37.2333 27.7378 36.94C27.7378 36.22 27.4844 35.6533 26.9778 35.24C26.4711 34.8267 25.7311 34.62 24.7578 34.62C24.0111 34.62 23.3378 34.7467 22.7378 35C22.1378 35.24 21.6178 35.62 21.1778 36.14L19.8178 34.96C20.3511 34.28 21.0644 33.76 21.9578 33.4C22.8644 33.0267 23.8578 32.84 24.9378 32.84C25.9111 32.84 26.7578 33 27.4778 33.32C28.1978 33.6267 28.7511 34.0733 29.1378 34.66C29.5378 35.2467 29.7378 35.94 29.7378 36.74C29.7378 37.1933 29.6778 37.64 29.5578 38.08C29.4378 38.52 29.2111 38.9867 28.8778 39.48C28.5444 39.9733 28.0644 40.5267 27.4378 41.14L22.3578 46.04L21.8778 45.26H30.3378V47H20.2778ZM37.6826 47.16C36.5893 47.16 35.6093 46.88 34.7426 46.32C33.8893 45.76 33.2093 44.9467 32.7026 43.88C32.2093 42.8133 31.9626 41.52 31.9626 40C31.9626 38.48 32.2093 37.1867 32.7026 36.12C33.2093 35.0533 33.8893 34.24 34.7426 33.68C35.6093 33.12 36.5893 32.84 37.6826 32.84C38.7626 32.84 39.7359 33.12 40.6026 33.68C41.4693 34.24 42.1493 35.0533 42.6426 36.12C43.1359 37.1867 43.3826 38.48 43.3826 40C43.3826 41.52 43.1359 42.8133 42.6426 43.88C42.1493 44.9467 41.4693 45.76 40.6026 46.32C39.7359 46.88 38.7626 47.16 37.6826 47.16ZM37.6826 45.38C38.4159 45.38 39.0559 45.18 39.6026 44.78C40.1626 44.38 40.5959 43.78 40.9026 42.98C41.2226 42.18 41.3826 41.1867 41.3826 40C41.3826 38.8133 41.2226 37.82 40.9026 37.02C40.5959 36.22 40.1626 35.62 39.6026 35.22C39.0559 34.82 38.4159 34.62 37.6826 34.62C36.9493 34.62 36.3026 34.82 35.7426 35.22C35.1826 35.62 34.7426 36.22 34.4226 37.02C34.1159 37.82 33.9626 38.8133 33.9626 40C33.9626 41.1867 34.1159 42.18 34.4226 42.98C34.7426 43.78 35.1826 44.38 35.7426 44.78C36.3026 45.18 36.9493 45.38 37.6826 45.38ZM46.3881 47.12C46.0147 47.12 45.6947 46.9933 45.4281 46.74C45.1614 46.4733 45.0281 46.14 45.0281 45.74C45.0281 45.34 45.1614 45.0133 45.4281 44.76C45.6947 44.5067 46.0147 44.38 46.3881 44.38C46.7481 44.38 47.0547 44.5067 47.3081 44.76C47.5747 45.0133 47.7081 45.34 47.7081 45.74C47.7081 46.14 47.5747 46.4733 47.3081 46.74C47.0547 46.9933 46.7481 47.12 46.3881 47.12ZM55.2546 47.16C54.1213 47.16 53.1413 46.9933 52.3146 46.66C51.488 46.3267 50.848 45.8533 50.3946 45.24C49.9413 44.6133 49.7146 43.88 49.7146 43.04C49.7146 42.2133 49.928 41.5133 50.3546 40.94C50.7946 40.3533 51.428 39.9133 52.2546 39.62C53.0813 39.3133 54.0813 39.16 55.2546 39.16C56.428 39.16 57.428 39.3133 58.2546 39.62C59.0946 39.9133 59.7346 40.3533 60.1746 40.94C60.6146 41.5267 60.8346 42.2267 60.8346 43.04C60.8346 43.88 60.608 44.6133 60.1546 45.24C59.7013 45.8533 59.0546 46.3267 58.2146 46.66C57.3746 46.9933 56.388 47.16 55.2546 47.16ZM55.2546 45.54C56.3746 45.54 57.248 45.3133 57.8746 44.86C58.5146 44.3933 58.8346 43.7667 58.8346 42.98C58.8346 42.2067 58.5146 41.6 57.8746 41.16C57.248 40.7067 56.3746 40.48 55.2546 40.48C54.148 40.48 53.2813 40.7067 52.6546 41.16C52.028 41.6 51.7146 42.2067 51.7146 42.98C51.7146 43.7667 52.028 44.3933 52.6546 44.86C53.2813 45.3133 54.148 45.54 55.2546 45.54ZM55.2546 40.24C54.188 40.24 53.2813 40.1 52.5346 39.82C51.788 39.5267 51.2146 39.1133 50.8146 38.58C50.4146 38.0333 50.2146 37.3867 50.2146 36.64C50.2146 35.8533 50.4213 35.18 50.8346 34.62C51.2613 34.0467 51.8546 33.6067 52.6146 33.3C53.3746 32.9933 54.2546 32.84 55.2546 32.84C56.268 32.84 57.1546 32.9933 57.9146 33.3C58.6746 33.6067 59.268 34.0467 59.6946 34.62C60.1213 35.18 60.3346 35.8533 60.3346 36.64C60.3346 37.3867 60.1346 38.0333 59.7346 38.58C59.3346 39.1133 58.7546 39.5267 57.9946 39.82C57.2346 40.1 56.3213 40.24 55.2546 40.24ZM55.2546 38.96C56.228 38.96 56.988 38.76 57.5346 38.36C58.0946 37.96 58.3746 37.4133 58.3746 36.72C58.3746 36.0133 58.088 35.46 57.5146 35.06C56.9413 34.66 56.188 34.46 55.2546 34.46C54.3213 34.46 53.5746 34.66 53.0146 35.06C52.468 35.46 52.1946 36.0133 52.1946 36.72C52.1946 37.4133 52.4613 37.96 52.9946 38.36C53.5413 38.76 54.2946 38.96 55.2546 38.96ZM82.1568 36.3C83.0102 36.3 83.7635 36.4667 84.4168 36.8C85.0702 37.1333 85.5768 37.64 85.9368 38.32C86.3102 39 86.4968 39.86 86.4968 40.9V47H84.5768V41.12C84.5768 40.0933 84.3368 39.32 83.8568 38.8C83.3768 38.28 82.7035 38.02 81.8368 38.02C81.1968 38.02 80.6368 38.1533 80.1568 38.42C79.6768 38.6867 79.3035 39.08 79.0368 39.6C78.7835 40.12 78.6568 40.7667 78.6568 41.54V47H76.7368V41.12C76.7368 40.0933 76.4968 39.32 76.0168 38.8C75.5502 38.28 74.8768 38.02 73.9968 38.02C73.3702 38.02 72.8168 38.1533 72.3368 38.42C71.8568 38.6867 71.4835 39.08 71.2168 39.6C70.9502 40.12 70.8168 40.7667 70.8168 41.54V47H68.8968V36.4H70.7368V39.22L70.4368 38.5C70.7702 37.8067 71.2835 37.2667 71.9768 36.88C72.6702 36.4933 73.4768 36.3 74.3968 36.3C75.4102 36.3 76.2835 36.5533 77.0168 37.06C77.7502 37.5533 78.2302 38.3067 78.4568 39.32L77.6768 39C77.9968 38.1867 78.5568 37.5333 79.3568 37.04C80.1568 36.5467 81.0902 36.3 82.1568 36.3ZM90.0296 47V36.4H91.9496V47H90.0296ZM90.9896 34.36C90.6163 34.36 90.303 34.24 90.0496 34C89.8096 33.76 89.6896 33.4667 89.6896 33.12C89.6896 32.76 89.8096 32.46 90.0496 32.22C90.303 31.98 90.6163 31.86 90.9896 31.86C91.363 31.86 91.6696 31.98 91.9096 32.22C92.163 32.4467 92.2896 32.7333 92.2896 33.08C92.2896 33.44 92.1696 33.7467 91.9296 34C91.6896 34.24 91.3763 34.36 90.9896 34.36Z" fill="white" fill-opacity="0.4"/>
<path d="M140.973 47.16C139.986 47.16 139.026 47.0067 138.093 46.7C137.173 46.3933 136.42 45.98 135.833 45.46L136.753 43.88C137.22 44.32 137.826 44.68 138.573 44.96C139.32 45.24 140.12 45.38 140.973 45.38C142.013 45.38 142.82 45.16 143.393 44.72C143.98 44.2667 144.273 43.66 144.273 42.9C144.273 42.1667 143.993 41.58 143.433 41.14C142.886 40.6867 142.013 40.46 140.813 40.46H139.693V39.06L143.853 33.94L144.133 34.74H136.473V33H145.713V34.36L141.573 39.46L140.533 38.84H141.193C142.886 38.84 144.153 39.22 144.993 39.98C145.846 40.74 146.273 41.7067 146.273 42.88C146.273 43.6667 146.08 44.3867 145.693 45.04C145.306 45.6933 144.72 46.2133 143.933 46.6C143.16 46.9733 142.173 47.16 140.973 47.16ZM150.324 47L156.264 33.84L156.784 34.74H148.464L149.464 33.76V37.24H147.544V33H158.104V34.36L152.444 47H150.324ZM179.348 36.3C180.202 36.3 180.955 36.4667 181.608 36.8C182.262 37.1333 182.768 37.64 183.128 38.32C183.502 39 183.688 39.86 183.688 40.9V47H181.768V41.12C181.768 40.0933 181.528 39.32 181.048 38.8C180.568 38.28 179.895 38.02 179.028 38.02C178.388 38.02 177.828 38.1533 177.348 38.42C176.868 38.6867 176.495 39.08 176.228 39.6C175.975 40.12 175.848 40.7667 175.848 41.54V47H173.928V41.12C173.928 40.0933 173.688 39.32 173.208 38.8C172.742 38.28 172.068 38.02 171.188 38.02C170.562 38.02 170.008 38.1533 169.528 38.42C169.048 38.6867 168.675 39.08 168.408 39.6C168.142 40.12 168.008 40.7667 168.008 41.54V47H166.088V36.4H167.928V39.22L167.628 38.5C167.962 37.8067 168.475 37.2667 169.168 36.88C169.862 36.4933 170.668 36.3 171.588 36.3C172.602 36.3 173.475 36.5533 174.208 37.06C174.942 37.5533 175.422 38.3067 175.648 39.32L174.868 39C175.188 38.1867 175.748 37.5333 176.548 37.04C177.348 36.5467 178.282 36.3 179.348 36.3ZM187.221 47V36.4H189.141V47H187.221ZM188.181 34.36C187.808 34.36 187.494 34.24 187.241 34C187.001 33.76 186.881 33.4667 186.881 33.12C186.881 32.76 187.001 32.46 187.241 32.22C187.494 31.98 187.808 31.86 188.181 31.86C188.554 31.86 188.861 31.98 189.101 32.22C189.354 32.4467 189.481 32.7333 189.481 33.08C189.481 33.44 189.361 33.7467 189.121 34C188.881 34.24 188.568 34.36 188.181 34.36ZM198.467 36.3C199.334 36.3 200.094 36.4667 200.747 36.8C201.414 37.1333 201.934 37.64 202.307 38.32C202.68 39 202.867 39.86 202.867 40.9V47H200.947V41.12C200.947 40.0933 200.694 39.32 200.187 38.8C199.694 38.28 198.994 38.02 198.087 38.02C197.407 38.02 196.814 38.1533 196.307 38.42C195.8 38.6867 195.407 39.08 195.127 39.6C194.86 40.12 194.727 40.7667 194.727 41.54V47H192.807V36.4H194.647V39.26L194.347 38.5C194.694 37.8067 195.227 37.2667 195.947 36.88C196.667 36.4933 197.507 36.3 198.467 36.3Z" fill="white" fill-opacity="0.4"/>
<path d="M242.612 47V33.8L243.472 34.74H239.452V33H244.592V47H242.612ZM253.374 47.16C252.281 47.16 251.301 46.88 250.434 46.32C249.581 45.76 248.901 44.9467 248.394 43.88C247.901 42.8133 247.654 41.52 247.654 40C247.654 38.48 247.901 37.1867 248.394 36.12C248.901 35.0533 249.581 34.24 250.434 33.68C251.301 33.12 252.281 32.84 253.374 32.84C254.454 32.84 255.427 33.12 256.294 33.68C257.161 34.24 257.841 35.0533 258.334 36.12C258.827 37.1867 259.074 38.48 259.074 40C259.074 41.52 258.827 42.8133 258.334 43.88C257.841 44.9467 257.161 45.76 256.294 46.32C255.427 46.88 254.454 47.16 253.374 47.16ZM253.374 45.38C254.107 45.38 254.747 45.18 255.294 44.78C255.854 44.38 256.287 43.78 256.594 42.98C256.914 42.18 257.074 41.1867 257.074 40C257.074 38.8133 256.914 37.82 256.594 37.02C256.287 36.22 255.854 35.62 255.294 35.22C254.747 34.82 254.107 34.62 253.374 34.62C252.641 34.62 251.994 34.82 251.434 35.22C250.874 35.62 250.434 36.22 250.114 37.02C249.807 37.82 249.654 38.8133 249.654 40C249.654 41.1867 249.807 42.18 250.114 42.98C250.434 43.78 250.874 44.38 251.434 44.78C251.994 45.18 252.641 45.38 253.374 45.38ZM262.314 39.04C261.941 39.04 261.621 38.9133 261.354 38.66C261.087 38.3933 260.954 38.06 260.954 37.66C260.954 37.26 261.087 36.9333 261.354 36.68C261.621 36.4267 261.941 36.3 262.314 36.3C262.674 36.3 262.981 36.4267 263.234 36.68C263.501 36.9333 263.634 37.26 263.634 37.66C263.634 38.06 263.501 38.3933 263.234 38.66C262.981 38.9133 262.674 39.04 262.314 39.04ZM262.314 47.12C261.941 47.12 261.621 46.9933 261.354 46.74C261.087 46.4733 260.954 46.14 260.954 45.74C260.954 45.34 261.087 45.0133 261.354 44.76C261.621 44.5067 261.941 44.38 262.314 44.38C262.674 44.38 262.981 44.5067 263.234 44.76C263.501 45.0133 263.634 45.34 263.634 45.74C263.634 46.14 263.501 46.4733 263.234 46.74C262.981 46.9933 262.674 47.12 262.314 47.12ZM270.045 47.16C269.058 47.16 268.098 47.0067 267.165 46.7C266.245 46.3933 265.492 45.98 264.905 45.46L265.825 43.88C266.292 44.32 266.898 44.68 267.645 44.96C268.392 45.24 269.185 45.38 270.025 45.38C271.092 45.38 271.912 45.1533 272.485 44.7C273.058 44.2467 273.345 43.64 273.345 42.88C273.345 42.36 273.218 41.9067 272.965 41.52C272.712 41.1333 272.272 40.84 271.645 40.64C271.032 40.4267 270.185 40.32 269.105 40.32H265.925L266.665 33H274.565V34.74H267.405L268.445 33.76L267.865 39.54L266.825 38.58H269.525C270.925 38.58 272.052 38.76 272.905 39.12C273.758 39.48 274.378 39.98 274.765 40.62C275.152 41.2467 275.345 41.9733 275.345 42.8C275.345 43.6 275.152 44.3333 274.765 45C274.378 45.6533 273.792 46.18 273.005 46.58C272.232 46.9667 271.245 47.16 270.045 47.16ZM282.469 47.16C281.336 47.16 280.356 46.9933 279.529 46.66C278.703 46.3267 278.063 45.8533 277.609 45.24C277.156 44.6133 276.929 43.88 276.929 43.04C276.929 42.2133 277.143 41.5133 277.569 40.94C278.009 40.3533 278.643 39.9133 279.469 39.62C280.296 39.3133 281.296 39.16 282.469 39.16C283.643 39.16 284.643 39.3133 285.469 39.62C286.309 39.9133 286.949 40.3533 287.389 40.94C287.829 41.5267 288.049 42.2267 288.049 43.04C288.049 43.88 287.823 44.6133 287.369 45.24C286.916 45.8533 286.269 46.3267 285.429 46.66C284.589 46.9933 283.603 47.16 282.469 47.16ZM282.469 45.54C283.589 45.54 284.463 45.3133 285.089 44.86C285.729 44.3933 286.049 43.7667 286.049 42.98C286.049 42.2067 285.729 41.6 285.089 41.16C284.463 40.7067 283.589 40.48 282.469 40.48C281.363 40.48 280.496 40.7067 279.869 41.16C279.243 41.6 278.929 42.2067 278.929 42.98C278.929 43.7667 279.243 44.3933 279.869 44.86C280.496 45.3133 281.363 45.54 282.469 45.54ZM282.469 40.24C281.403 40.24 280.496 40.1 279.749 39.82C279.003 39.5267 278.429 39.1133 278.029 38.58C277.629 38.0333 277.429 37.3867 277.429 36.64C277.429 35.8533 277.636 35.18 278.049 34.62C278.476 34.0467 279.069 33.6067 279.829 33.3C280.589 32.9933 281.469 32.84 282.469 32.84C283.483 32.84 284.369 32.9933 285.129 33.3C285.889 33.6067 286.483 34.0467 286.909 34.62C287.336 35.18 287.549 35.8533 287.549 36.64C287.549 37.3867 287.349 38.0333 286.949 38.58C286.549 39.1133 285.969 39.5267 285.209 39.82C284.449 40.1 283.536 40.24 282.469 40.24ZM282.469 38.96C283.443 38.96 284.203 38.76 284.749 38.36C285.309 37.96 285.589 37.4133 285.589 36.72C285.589 36.0133 285.303 35.46 284.729 35.06C284.156 34.66 283.403 34.46 282.469 34.46C281.536 34.46 280.789 34.66 280.229 35.06C279.683 35.46 279.409 36.0133 279.409 36.72C279.409 37.4133 279.676 37.96 280.209 38.36C280.756 38.76 281.509 38.96 282.469 38.96ZM294.272 47L300.612 33H302.592L308.952 47H306.852L301.192 34.12H301.992L296.332 47H294.272ZM296.972 43.5L297.512 41.9H305.392L305.972 43.5H296.972ZM311.04 47V33H312.68L318.96 43.58H318.08L324.28 33H325.92L325.94 47H324.02L324 36.02H324.46L318.94 45.3H318.02L312.46 36.02H312.96V47H311.04Z" fill="white" fill-opacity="0.4"/>
</g>
<defs>
<clipPath id="clip0_455765_5609">
<rect width="340" height="80" fill="white"/>
</clipPath>
</defs>
</svg>
