<svg width="340" height="120" viewBox="0 0 340 120" fill="none" xmlns="http://www.w3.org/2000/svg">
<path fill-rule="evenodd" clip-rule="evenodd" d="M49.7506 67.077C52.6557 63.458 63 50.1169 63 43.641C63 36.1073 56.732 30 49 30C41.268 30 35 36.1073 35 43.641C35 50.1169 45.3443 63.458 48.2494 67.077C48.6407 67.5645 49.3593 67.5645 49.7506 67.077ZM49 50C52.3137 50 55 47.3137 55 44C55 40.6863 52.3137 38 49 38C45.6863 38 43 40.6863 43 44C43 47.3137 45.6863 50 49 50Z" fill="white" fill-opacity="0.4"/>
<path d="M103.92 63.04H111.12V64.74H103.92V63.04ZM104.1 69.26H112.26V71H102.1V57H111.98V58.74H104.1V69.26ZM115.218 71V56.16H117.138V71H115.218ZM125.524 71.12C124.391 71.12 123.391 70.8867 122.524 70.42C121.671 69.9533 121.004 69.3133 120.524 68.5C120.058 67.6867 119.824 66.7533 119.824 65.7C119.824 64.6467 120.051 63.7133 120.504 62.9C120.971 62.0867 121.604 61.4533 122.404 61C123.218 60.5333 124.131 60.3 125.144 60.3C126.171 60.3 127.078 60.5267 127.864 60.98C128.651 61.4333 129.264 62.0733 129.704 62.9C130.158 63.7133 130.384 64.6667 130.384 65.76C130.384 65.84 130.378 65.9333 130.364 66.04C130.364 66.1467 130.358 66.2467 130.344 66.34H121.324V64.96H129.344L128.564 65.44C128.578 64.76 128.438 64.1533 128.144 63.62C127.851 63.0867 127.444 62.6733 126.924 62.38C126.418 62.0733 125.824 61.92 125.144 61.92C124.478 61.92 123.884 62.0733 123.364 62.38C122.844 62.6733 122.438 63.0933 122.144 63.64C121.851 64.1733 121.704 64.7867 121.704 65.48V65.8C121.704 66.5067 121.864 67.14 122.184 67.7C122.518 68.2467 122.978 68.6733 123.564 68.98C124.151 69.2867 124.824 69.44 125.584 69.44C126.211 69.44 126.778 69.3333 127.284 69.12C127.804 68.9067 128.258 68.5867 128.644 68.16L129.704 69.4C129.224 69.96 128.624 70.3867 127.904 70.68C127.198 70.9733 126.404 71.12 125.524 71.12ZM137.67 71.12C136.59 71.12 135.624 70.8867 134.77 70.42C133.93 69.9533 133.27 69.3133 132.79 68.5C132.31 67.6867 132.07 66.7533 132.07 65.7C132.07 64.6467 132.31 63.7133 132.79 62.9C133.27 62.0867 133.93 61.4533 134.77 61C135.624 60.5333 136.59 60.3 137.67 60.3C138.63 60.3 139.484 60.4933 140.23 60.88C140.99 61.2533 141.577 61.8133 141.99 62.56L140.53 63.5C140.184 62.98 139.757 62.6 139.25 62.36C138.757 62.1067 138.224 61.98 137.65 61.98C136.957 61.98 136.337 62.1333 135.79 62.44C135.244 62.7467 134.81 63.18 134.49 63.74C134.17 64.2867 134.01 64.94 134.01 65.7C134.01 66.46 134.17 67.12 134.49 67.68C134.81 68.24 135.244 68.6733 135.79 68.98C136.337 69.2867 136.957 69.44 137.65 69.44C138.224 69.44 138.757 69.32 139.25 69.08C139.757 68.8267 140.184 68.44 140.53 67.92L141.99 68.84C141.577 69.5733 140.99 70.14 140.23 70.54C139.484 70.9267 138.63 71.12 137.67 71.12ZM148.253 71.12C147.186 71.12 146.36 70.8333 145.773 70.26C145.186 69.6867 144.893 68.8667 144.893 67.8V58.08H146.813V67.72C146.813 68.2933 146.953 68.7333 147.233 69.04C147.526 69.3467 147.94 69.5 148.473 69.5C149.073 69.5 149.573 69.3333 149.973 69L150.573 70.38C150.28 70.6333 149.926 70.82 149.513 70.94C149.113 71.06 148.693 71.12 148.253 71.12ZM143.093 61.98V60.4H149.853V61.98H143.093ZM152.894 71V60.4H154.734V63.28L154.554 62.56C154.848 61.8267 155.341 61.2667 156.034 60.88C156.728 60.4933 157.581 60.3 158.594 60.3V62.16C158.514 62.1467 158.434 62.14 158.354 62.14C158.288 62.14 158.221 62.14 158.154 62.14C157.128 62.14 156.314 62.4467 155.714 63.06C155.114 63.6733 154.814 64.56 154.814 65.72V71H152.894ZM160.961 71V60.4H162.881V71H160.961ZM161.921 58.36C161.547 58.36 161.234 58.24 160.981 58C160.741 57.76 160.621 57.4667 160.621 57.12C160.621 56.76 160.741 56.46 160.981 56.22C161.234 55.98 161.547 55.86 161.921 55.86C162.294 55.86 162.601 55.98 162.841 56.22C163.094 56.4467 163.221 56.7333 163.221 57.08C163.221 57.44 163.101 57.7467 162.861 58C162.621 58.24 162.307 58.36 161.921 58.36ZM171.167 71.12C170.087 71.12 169.12 70.8867 168.267 70.42C167.427 69.9533 166.767 69.3133 166.287 68.5C165.807 67.6867 165.567 66.7533 165.567 65.7C165.567 64.6467 165.807 63.7133 166.287 62.9C166.767 62.0867 167.427 61.4533 168.267 61C169.12 60.5333 170.087 60.3 171.167 60.3C172.127 60.3 172.98 60.4933 173.727 60.88C174.487 61.2533 175.073 61.8133 175.487 62.56L174.027 63.5C173.68 62.98 173.253 62.6 172.747 62.36C172.253 62.1067 171.72 61.98 171.147 61.98C170.453 61.98 169.833 62.1333 169.287 62.44C168.74 62.7467 168.307 63.18 167.987 63.74C167.667 64.2867 167.507 64.94 167.507 65.7C167.507 66.46 167.667 67.12 167.987 67.68C168.307 68.24 168.74 68.6733 169.287 68.98C169.833 69.2867 170.453 69.44 171.147 69.44C171.72 69.44 172.253 69.32 172.747 69.08C173.253 68.8267 173.68 68.44 174.027 67.92L175.487 68.84C175.073 69.5733 174.487 70.14 173.727 70.54C172.98 70.9267 172.127 71.12 171.167 71.12ZM177.836 71V60.4H179.756V71H177.836ZM178.796 58.36C178.422 58.36 178.109 58.24 177.856 58C177.616 57.76 177.496 57.4667 177.496 57.12C177.496 56.76 177.616 56.46 177.856 56.22C178.109 55.98 178.422 55.86 178.796 55.86C179.169 55.86 179.476 55.98 179.716 56.22C179.969 56.4467 180.096 56.7333 180.096 57.08C180.096 57.44 179.976 57.7467 179.736 58C179.496 58.24 179.182 58.36 178.796 58.36ZM187.062 71.12C185.995 71.12 185.168 70.8333 184.582 70.26C183.995 69.6867 183.702 68.8667 183.702 67.8V58.08H185.622V67.72C185.622 68.2933 185.762 68.7333 186.042 69.04C186.335 69.3467 186.748 69.5 187.282 69.5C187.882 69.5 188.382 69.3333 188.782 69L189.382 70.38C189.088 70.6333 188.735 70.82 188.322 70.94C187.922 71.06 187.502 71.12 187.062 71.12ZM181.902 61.98V60.4H188.662V61.98H181.902ZM191.968 75C191.461 75 190.968 74.9133 190.488 74.74C190.008 74.58 189.594 74.34 189.247 74.02L190.068 72.58C190.334 72.8333 190.628 73.0267 190.948 73.16C191.268 73.2933 191.608 73.36 191.968 73.36C192.434 73.36 192.821 73.24 193.128 73C193.434 72.76 193.721 72.3333 193.988 71.72L194.648 70.26L194.848 70.02L199.008 60.4H200.888L195.748 72.06C195.441 72.8067 195.094 73.3933 194.708 73.82C194.334 74.2467 193.921 74.5467 193.468 74.72C193.014 74.9067 192.514 75 191.968 75ZM194.488 71.34L189.647 60.4H191.648L195.768 69.84L194.488 71.34ZM214.59 71.16C213.524 71.16 212.537 70.9867 211.63 70.64C210.737 70.28 209.957 69.78 209.29 69.14C208.637 68.4867 208.124 67.7267 207.75 66.86C207.377 65.9933 207.19 65.04 207.19 64C207.19 62.96 207.377 62.0067 207.75 61.14C208.124 60.2733 208.644 59.52 209.31 58.88C209.977 58.2267 210.757 57.7267 211.65 57.38C212.557 57.02 213.544 56.84 214.61 56.84C215.69 56.84 216.684 57.0267 217.59 57.4C218.51 57.76 219.29 58.3 219.93 59.02L218.63 60.28C218.097 59.72 217.497 59.3067 216.83 59.04C216.164 58.76 215.45 58.62 214.69 58.62C213.904 58.62 213.17 58.7533 212.49 59.02C211.824 59.2867 211.244 59.66 210.75 60.14C210.257 60.62 209.87 61.1933 209.59 61.86C209.324 62.5133 209.19 63.2267 209.19 64C209.19 64.7733 209.324 65.4933 209.59 66.16C209.87 66.8133 210.257 67.38 210.75 67.86C211.244 68.34 211.824 68.7133 212.49 68.98C213.17 69.2467 213.904 69.38 214.69 69.38C215.45 69.38 216.164 69.2467 216.83 68.98C217.497 68.7 218.097 68.2733 218.63 67.7L219.93 68.96C219.29 69.68 218.51 70.2267 217.59 70.6C216.684 70.9733 215.684 71.16 214.59 71.16ZM228.164 60.3C229.03 60.3 229.79 60.4667 230.444 60.8C231.11 61.1333 231.63 61.64 232.004 62.32C232.377 63 232.564 63.86 232.564 64.9V71H230.644V65.12C230.644 64.0933 230.39 63.32 229.884 62.8C229.39 62.28 228.69 62.02 227.784 62.02C227.104 62.02 226.51 62.1533 226.004 62.42C225.497 62.6867 225.104 63.08 224.824 63.6C224.557 64.12 224.424 64.7667 224.424 65.54V71H222.504V56.16H224.424V63.26L224.044 62.5C224.39 61.8067 224.924 61.2667 225.644 60.88C226.364 60.4933 227.204 60.3 228.164 60.3ZM242.697 71V68.76L242.597 68.34V64.52C242.597 63.7067 242.357 63.08 241.877 62.64C241.41 62.1867 240.704 61.96 239.757 61.96C239.13 61.96 238.517 62.0667 237.917 62.28C237.317 62.48 236.81 62.7533 236.397 63.1L235.597 61.66C236.144 61.22 236.797 60.8867 237.557 60.66C238.33 60.42 239.137 60.3 239.977 60.3C241.43 60.3 242.55 60.6533 243.337 61.36C244.124 62.0667 244.517 63.1467 244.517 64.6V71H242.697ZM239.217 71.12C238.43 71.12 237.737 70.9867 237.137 70.72C236.55 70.4533 236.097 70.0867 235.777 69.62C235.457 69.14 235.297 68.6 235.297 68C235.297 67.4267 235.43 66.9067 235.697 66.44C235.977 65.9733 236.424 65.6 237.037 65.32C237.664 65.04 238.504 64.9 239.557 64.9H242.917V66.28H239.637C238.677 66.28 238.03 66.44 237.697 66.76C237.364 67.08 237.197 67.4667 237.197 67.92C237.197 68.44 237.404 68.86 237.817 69.18C238.23 69.4867 238.804 69.64 239.537 69.64C240.257 69.64 240.884 69.48 241.417 69.16C241.964 68.84 242.357 68.3733 242.597 67.76L242.977 69.08C242.724 69.7067 242.277 70.2067 241.637 70.58C240.997 70.94 240.19 71.12 239.217 71.12ZM248.07 71V60.4H249.91V63.28L249.73 62.56C250.023 61.8267 250.517 61.2667 251.21 60.88C251.903 60.4933 252.757 60.3 253.77 60.3V62.16C253.69 62.1467 253.61 62.14 253.53 62.14C253.463 62.14 253.397 62.14 253.33 62.14C252.303 62.14 251.49 62.4467 250.89 63.06C250.29 63.6733 249.99 64.56 249.99 65.72V71H248.07ZM260.679 75C259.705 75 258.759 74.86 257.839 74.58C256.932 74.3133 256.192 73.9267 255.619 73.42L256.539 71.94C257.032 72.3667 257.639 72.7 258.359 72.94C259.079 73.1933 259.832 73.32 260.619 73.32C261.872 73.32 262.792 73.0267 263.379 72.44C263.965 71.8533 264.259 70.96 264.259 69.76V67.52L264.459 65.42L264.359 63.3V60.4H266.179V69.56C266.179 71.4267 265.712 72.8 264.779 73.68C263.845 74.56 262.479 75 260.679 75ZM260.439 70.56C259.412 70.56 258.492 70.3467 257.679 69.92C256.879 69.48 256.239 68.8733 255.759 68.1C255.292 67.3267 255.059 66.4333 255.059 65.42C255.059 64.3933 255.292 63.5 255.759 62.74C256.239 61.9667 256.879 61.3667 257.679 60.94C258.492 60.5133 259.412 60.3 260.439 60.3C261.345 60.3 262.172 60.4867 262.919 60.86C263.665 61.22 264.259 61.78 264.699 62.54C265.152 63.3 265.379 64.26 265.379 65.42C265.379 66.5667 265.152 67.52 264.699 68.28C264.259 69.04 263.665 69.6133 262.919 70C262.172 70.3733 261.345 70.56 260.439 70.56ZM260.659 68.88C261.365 68.88 261.992 68.7333 262.539 68.44C263.085 68.1467 263.512 67.74 263.819 67.22C264.139 66.7 264.299 66.1 264.299 65.42C264.299 64.74 264.139 64.14 263.819 63.62C263.512 63.1 263.085 62.7 262.539 62.42C261.992 62.1267 261.365 61.98 260.659 61.98C259.952 61.98 259.319 62.1267 258.759 62.42C258.212 62.7 257.779 63.1 257.459 63.62C257.152 64.14 256.999 64.74 256.999 65.42C256.999 66.1 257.152 66.7 257.459 67.22C257.779 67.74 258.212 68.1467 258.759 68.44C259.319 68.7333 259.952 68.88 260.659 68.88ZM274.567 71.12C273.434 71.12 272.434 70.8867 271.567 70.42C270.714 69.9533 270.047 69.3133 269.567 68.5C269.101 67.6867 268.867 66.7533 268.867 65.7C268.867 64.6467 269.094 63.7133 269.547 62.9C270.014 62.0867 270.647 61.4533 271.447 61C272.261 60.5333 273.174 60.3 274.187 60.3C275.214 60.3 276.121 60.5267 276.907 60.98C277.694 61.4333 278.307 62.0733 278.747 62.9C279.201 63.7133 279.427 64.6667 279.427 65.76C279.427 65.84 279.421 65.9333 279.407 66.04C279.407 66.1467 279.401 66.2467 279.387 66.34H270.367V64.96H278.387L277.607 65.44C277.621 64.76 277.481 64.1533 277.187 63.62C276.894 63.0867 276.487 62.6733 275.967 62.38C275.461 62.0733 274.867 61.92 274.187 61.92C273.521 61.92 272.927 62.0733 272.407 62.38C271.887 62.6733 271.481 63.0933 271.187 63.64C270.894 64.1733 270.747 64.7867 270.747 65.48V65.8C270.747 66.5067 270.907 67.14 271.227 67.7C271.561 68.2467 272.021 68.6733 272.607 68.98C273.194 69.2867 273.867 69.44 274.627 69.44C275.254 69.44 275.821 69.3333 276.327 69.12C276.847 68.9067 277.301 68.5867 277.687 68.16L278.747 69.4C278.267 69.96 277.667 70.3867 276.947 70.68C276.241 70.9733 275.447 71.12 274.567 71.12ZM282.093 71V60.4H283.933V63.28L283.753 62.56C284.047 61.8267 284.54 61.2667 285.233 60.88C285.927 60.4933 286.78 60.3 287.793 60.3V62.16C287.713 62.1467 287.633 62.14 287.553 62.14C287.487 62.14 287.42 62.14 287.353 62.14C286.327 62.14 285.513 62.4467 284.913 63.06C284.313 63.6733 284.013 64.56 284.013 65.72V71H282.093Z" fill="white" fill-opacity="0.4"/>
<path d="M105.46 44.12C104.46 44.12 103.507 43.96 102.6 43.64C101.693 43.3067 100.973 42.8667 100.44 42.32L101.14 41.18C101.58 41.6467 102.18 42.0333 102.94 42.34C103.713 42.6467 104.547 42.8 105.44 42.8C106.627 42.8 107.527 42.54 108.14 42.02C108.767 41.4867 109.08 40.7933 109.08 39.94C109.08 39.34 108.933 38.8267 108.64 38.4C108.36 37.96 107.88 37.62 107.2 37.38C106.52 37.14 105.587 37.02 104.4 37.02H101.42L102.14 30H109.8V31.28H102.72L103.46 30.58L102.84 36.46L102.1 35.74H104.72C106.133 35.74 107.267 35.9133 108.12 36.26C108.973 36.6067 109.587 37.0933 109.96 37.72C110.347 38.3333 110.54 39.0533 110.54 39.88C110.54 40.6667 110.353 41.3867 109.98 42.04C109.607 42.68 109.047 43.1867 108.3 43.56C107.553 43.9333 106.607 44.12 105.46 44.12ZM117.948 44.12C116.868 44.12 115.908 43.84 115.068 43.28C114.228 42.7067 113.568 41.8933 113.088 40.84C112.608 39.7733 112.368 38.4933 112.368 37C112.368 35.5067 112.608 34.2333 113.088 33.18C113.568 32.1133 114.228 31.3 115.068 30.74C115.908 30.1667 116.868 29.88 117.948 29.88C119.028 29.88 119.988 30.1667 120.828 30.74C121.668 31.3 122.328 32.1133 122.808 33.18C123.301 34.2333 123.548 35.5067 123.548 37C123.548 38.4933 123.301 39.7733 122.808 40.84C122.328 41.8933 121.668 42.7067 120.828 43.28C119.988 43.84 119.028 44.12 117.948 44.12ZM117.948 42.8C118.775 42.8 119.495 42.58 120.108 42.14C120.721 41.6867 121.201 41.0333 121.548 40.18C121.895 39.3133 122.068 38.2533 122.068 37C122.068 35.7467 121.895 34.6933 121.548 33.84C121.201 32.9733 120.721 32.32 120.108 31.88C119.495 31.4267 118.775 31.2 117.948 31.2C117.148 31.2 116.435 31.4267 115.808 31.88C115.181 32.32 114.695 32.9733 114.348 33.84C114.001 34.6933 113.828 35.7467 113.828 37C113.828 38.2533 114.001 39.3133 114.348 40.18C114.695 41.0333 115.181 41.6867 115.808 42.14C116.435 42.58 117.148 42.8 117.948 42.8ZM131.19 44.12C130.11 44.12 129.15 43.84 128.31 43.28C127.47 42.7067 126.81 41.8933 126.33 40.84C125.85 39.7733 125.61 38.4933 125.61 37C125.61 35.5067 125.85 34.2333 126.33 33.18C126.81 32.1133 127.47 31.3 128.31 30.74C129.15 30.1667 130.11 29.88 131.19 29.88C132.27 29.88 133.23 30.1667 134.07 30.74C134.91 31.3 135.57 32.1133 136.05 33.18C136.544 34.2333 136.79 35.5067 136.79 37C136.79 38.4933 136.544 39.7733 136.05 40.84C135.57 41.8933 134.91 42.7067 134.07 43.28C133.23 43.84 132.27 44.12 131.19 44.12ZM131.19 42.8C132.017 42.8 132.737 42.58 133.35 42.14C133.964 41.6867 134.444 41.0333 134.79 40.18C135.137 39.3133 135.31 38.2533 135.31 37C135.31 35.7467 135.137 34.6933 134.79 33.84C134.444 32.9733 133.964 32.32 133.35 31.88C132.737 31.4267 132.017 31.2 131.19 31.2C130.39 31.2 129.677 31.4267 129.05 31.88C128.424 32.32 127.937 32.9733 127.59 33.84C127.244 34.6933 127.07 35.7467 127.07 37C127.07 38.2533 127.244 39.3133 127.59 40.18C127.937 41.0333 128.424 41.6867 129.05 42.14C129.677 42.58 130.39 42.8 131.19 42.8ZM140.033 44V32.18C140.033 31.2467 140.306 30.4933 140.853 29.92C141.399 29.3467 142.186 29.06 143.213 29.06C143.613 29.06 143.999 29.1133 144.373 29.22C144.746 29.3267 145.059 29.4933 145.313 29.72L144.833 30.78C144.633 30.6067 144.399 30.48 144.133 30.4C143.866 30.3067 143.579 30.26 143.273 30.26C142.673 30.26 142.213 30.4267 141.893 30.76C141.573 31.0933 141.413 31.5867 141.413 32.24V33.84L141.453 34.5V44H140.033ZM138.153 34.68V33.5H144.653V34.68H138.153ZM149.89 44.1C148.903 44.1 148.143 43.8333 147.61 43.3C147.077 42.7667 146.81 42.0133 146.81 41.04V31.18H148.23V40.96C148.23 41.5733 148.383 42.0467 148.69 42.38C149.01 42.7133 149.463 42.88 150.05 42.88C150.677 42.88 151.197 42.7 151.61 42.34L152.11 43.36C151.83 43.6133 151.49 43.8 151.09 43.92C150.703 44.04 150.303 44.1 149.89 44.1ZM144.93 34.68V33.5H151.43V34.68H144.93Z" fill="#7F97A0"/>
<path d="M163.38 97L169.32 83.84L169.84 84.74H161.52L162.52 83.76V87.24H160.6V83H171.16V84.36L165.5 97H163.38ZM178.022 97.16C176.888 97.16 175.908 96.9933 175.082 96.66C174.255 96.3267 173.615 95.8533 173.162 95.24C172.708 94.6133 172.482 93.88 172.482 93.04C172.482 92.2133 172.695 91.5133 173.122 90.94C173.562 90.3533 174.195 89.9133 175.022 89.62C175.848 89.3133 176.848 89.16 178.022 89.16C179.195 89.16 180.195 89.3133 181.022 89.62C181.862 89.9133 182.502 90.3533 182.942 90.94C183.382 91.5267 183.602 92.2267 183.602 93.04C183.602 93.88 183.375 94.6133 182.922 95.24C182.468 95.8533 181.822 96.3267 180.982 96.66C180.142 96.9933 179.155 97.16 178.022 97.16ZM178.022 95.54C179.142 95.54 180.015 95.3133 180.642 94.86C181.282 94.3933 181.602 93.7667 181.602 92.98C181.602 92.2067 181.282 91.6 180.642 91.16C180.015 90.7067 179.142 90.48 178.022 90.48C176.915 90.48 176.048 90.7067 175.422 91.16C174.795 91.6 174.482 92.2067 174.482 92.98C174.482 93.7667 174.795 94.3933 175.422 94.86C176.048 95.3133 176.915 95.54 178.022 95.54ZM178.022 90.24C176.955 90.24 176.048 90.1 175.302 89.82C174.555 89.5267 173.982 89.1133 173.582 88.58C173.182 88.0333 172.982 87.3867 172.982 86.64C172.982 85.8533 173.188 85.18 173.602 84.62C174.028 84.0467 174.622 83.6067 175.382 83.3C176.142 82.9933 177.022 82.84 178.022 82.84C179.035 82.84 179.922 82.9933 180.682 83.3C181.442 83.6067 182.035 84.0467 182.462 84.62C182.888 85.18 183.102 85.8533 183.102 86.64C183.102 87.3867 182.902 88.0333 182.502 88.58C182.102 89.1133 181.522 89.5267 180.762 89.82C180.002 90.1 179.088 90.24 178.022 90.24ZM178.022 88.96C178.995 88.96 179.755 88.76 180.302 88.36C180.862 87.96 181.142 87.4133 181.142 86.72C181.142 86.0133 180.855 85.46 180.282 85.06C179.708 84.66 178.955 84.46 178.022 84.46C177.088 84.46 176.342 84.66 175.782 85.06C175.235 85.46 174.962 86.0133 174.962 86.72C174.962 87.4133 175.228 87.96 175.762 88.36C176.308 88.76 177.062 88.96 178.022 88.96ZM187.157 97L196.717 83H198.257L188.697 97H187.157ZM188.277 90.52C187.637 90.52 187.071 90.36 186.577 90.04C186.084 89.72 185.697 89.2733 185.417 88.7C185.151 88.1267 185.017 87.46 185.017 86.7C185.017 85.94 185.151 85.2733 185.417 84.7C185.697 84.1267 186.084 83.68 186.577 83.36C187.071 83.04 187.637 82.88 188.277 82.88C188.931 82.88 189.497 83.04 189.977 83.36C190.471 83.68 190.851 84.1267 191.117 84.7C191.384 85.2733 191.517 85.94 191.517 86.7C191.517 87.46 191.384 88.1267 191.117 88.7C190.851 89.2733 190.471 89.72 189.977 90.04C189.497 90.36 188.931 90.52 188.277 90.52ZM188.277 89.38C188.891 89.38 189.371 89.1467 189.717 88.68C190.064 88.2 190.237 87.54 190.237 86.7C190.237 85.86 190.064 85.2067 189.717 84.74C189.371 84.26 188.891 84.02 188.277 84.02C187.677 84.02 187.197 84.26 186.837 84.74C186.491 85.2067 186.317 85.86 186.317 86.7C186.317 87.5267 186.491 88.18 186.837 88.66C187.197 89.14 187.677 89.38 188.277 89.38ZM197.137 97.12C196.497 97.12 195.931 96.96 195.437 96.64C194.944 96.32 194.564 95.8733 194.297 95.3C194.031 94.7267 193.897 94.06 193.897 93.3C193.897 92.54 194.031 91.8733 194.297 91.3C194.564 90.7267 194.944 90.28 195.437 89.96C195.931 89.64 196.497 89.48 197.137 89.48C197.791 89.48 198.357 89.64 198.837 89.96C199.331 90.28 199.711 90.7267 199.977 91.3C200.257 91.8733 200.397 92.54 200.397 93.3C200.397 94.06 200.257 94.7267 199.977 95.3C199.711 95.8733 199.331 96.32 198.837 96.64C198.357 96.96 197.791 97.12 197.137 97.12ZM197.137 95.98C197.737 95.98 198.211 95.7467 198.557 95.28C198.917 94.8 199.097 94.14 199.097 93.3C199.097 92.4733 198.917 91.82 198.557 91.34C198.211 90.86 197.737 90.62 197.137 90.62C196.537 90.62 196.057 90.86 195.697 91.34C195.351 91.8067 195.177 92.46 195.177 93.3C195.177 94.14 195.351 94.8 195.697 95.28C196.057 95.7467 196.537 95.98 197.137 95.98Z" fill="white" fill-opacity="0.4"/>
<path fill-rule="evenodd" clip-rule="evenodd" d="M146.774 82V85V87V95V97V98C146.774 99.1046 145.879 100 144.774 100H102C100.895 100 100 99.1046 100 98V82C100 80.8954 100.895 80 102 80H144.774C145.879 80 146.774 80.8954 146.774 82ZM149.999 93C149.999 93.4618 149.843 93.887 149.58 94.2255C149.371 94.4954 149.093 94.7101 148.774 94.8444C148.536 94.9446 148.274 95 147.999 95H147.58V93V89V87H147.999C148.274 87 148.536 87.0554 148.774 87.1556C149.093 87.2899 149.371 87.5046 149.58 87.7745C149.843 88.113 149.999 88.5382 149.999 89V93ZM102 98V82L144.774 82V98H102ZM134 84H104V96H134V84Z" fill="white" fill-opacity="0.4"/>
</svg>
