<svg width="340" height="80" viewBox="0 0 340 80" fill="none" xmlns="http://www.w3.org/2000/svg">
<g clip-path="url(#clip0_455765_5582)">
<rect width="340" height="80" fill="white" fill-opacity="0.2"/>
<path d="M109.864 47.16C108.797 47.16 107.811 46.9867 106.904 46.64C106.011 46.28 105.231 45.78 104.564 45.14C103.911 44.4867 103.397 43.7267 103.024 42.86C102.651 41.9933 102.464 41.04 102.464 40C102.464 38.96 102.651 38.0067 103.024 37.14C103.397 36.2733 103.917 35.52 104.584 34.88C105.251 34.2267 106.031 33.7267 106.924 33.38C107.831 33.02 108.817 32.84 109.884 32.84C110.964 32.84 111.957 33.0267 112.864 33.4C113.784 33.76 114.564 34.3 115.204 35.02L113.904 36.28C113.371 35.72 112.771 35.3067 112.104 35.04C111.437 34.76 110.724 34.62 109.964 34.62C109.177 34.62 108.444 34.7533 107.764 35.02C107.097 35.2867 106.517 35.66 106.024 36.14C105.531 36.62 105.144 37.1933 104.864 37.86C104.597 38.5133 104.464 39.2267 104.464 40C104.464 40.7733 104.597 41.4933 104.864 42.16C105.144 42.8133 105.531 43.38 106.024 43.86C106.517 44.34 107.097 44.7133 107.764 44.98C108.444 45.2467 109.177 45.38 109.964 45.38C110.724 45.38 111.437 45.2467 112.104 44.98C112.771 44.7 113.371 44.2733 113.904 43.7L115.204 44.96C114.564 45.68 113.784 46.2267 112.864 46.6C111.957 46.9733 110.957 47.16 109.864 47.16ZM115.605 47L121.945 33H123.925L130.285 47H128.185L122.525 34.12H123.325L117.665 47H115.605ZM118.305 43.5L118.845 41.9H126.725L127.305 43.5H118.305ZM132.373 47V33H134.013L143.273 44.5H142.413V33H144.413V47H142.773L133.513 35.5H134.373V47H132.373ZM154.864 47.16C153.797 47.16 152.811 46.9867 151.904 46.64C151.011 46.28 150.231 45.78 149.564 45.14C148.911 44.4867 148.397 43.7267 148.024 42.86C147.651 41.9933 147.464 41.04 147.464 40C147.464 38.96 147.651 38.0067 148.024 37.14C148.397 36.2733 148.917 35.52 149.584 34.88C150.251 34.2267 151.031 33.7267 151.924 33.38C152.831 33.02 153.817 32.84 154.884 32.84C155.964 32.84 156.957 33.0267 157.864 33.4C158.784 33.76 159.564 34.3 160.204 35.02L158.904 36.28C158.371 35.72 157.771 35.3067 157.104 35.04C156.437 34.76 155.724 34.62 154.964 34.62C154.177 34.62 153.444 34.7533 152.764 35.02C152.097 35.2867 151.517 35.66 151.024 36.14C150.531 36.62 150.144 37.1933 149.864 37.86C149.597 38.5133 149.464 39.2267 149.464 40C149.464 40.7733 149.597 41.4933 149.864 42.16C150.144 42.8133 150.531 43.38 151.024 43.86C151.517 44.34 152.097 44.7133 152.764 44.98C153.444 45.2467 154.177 45.38 154.964 45.38C155.724 45.38 156.437 45.2467 157.104 44.98C157.771 44.7 158.371 44.2733 158.904 43.7L160.204 44.96C159.564 45.68 158.784 46.2267 157.864 46.6C156.957 46.9733 155.957 47.16 154.864 47.16ZM164.877 39.04H172.077V40.74H164.877V39.04ZM165.057 45.26H173.217V47H163.057V33H172.937V34.74H165.057V45.26ZM176.455 47V33H178.455V45.26H186.035V47H176.455ZM196.482 47V34.74H191.682V33H203.262V34.74H198.462V47H196.482ZM205.44 47V33H210.9C212.127 33 213.173 33.1933 214.04 33.58C214.907 33.9667 215.573 34.5267 216.04 35.26C216.507 35.9933 216.74 36.8667 216.74 37.88C216.74 38.8933 216.507 39.7667 216.04 40.5C215.573 41.22 214.907 41.7733 214.04 42.16C213.173 42.5467 212.127 42.74 210.9 42.74H206.54L207.44 41.82V47H205.44ZM214.8 47L211.24 41.92H213.38L216.98 47H214.8ZM207.44 42.02L206.54 41.04H210.84C212.12 41.04 213.087 40.7667 213.74 40.22C214.407 39.66 214.74 38.88 214.74 37.88C214.74 36.88 214.407 36.1067 213.74 35.56C213.087 35.0133 212.12 34.74 210.84 34.74H206.54L207.44 33.74V42.02ZM219.971 47V33H221.971V47H219.971ZM226.163 47V33H231.623C232.849 33 233.896 33.1933 234.763 33.58C235.629 33.9667 236.296 34.5267 236.763 35.26C237.229 35.9933 237.463 36.8667 237.463 37.88C237.463 38.8933 237.229 39.7667 236.763 40.5C236.296 41.22 235.629 41.78 234.763 42.18C233.896 42.5667 232.849 42.76 231.623 42.76H227.263L228.163 41.82V47H226.163ZM228.163 42.02L227.263 41.02H231.563C232.843 41.02 233.809 40.7467 234.463 40.2C235.129 39.6533 235.463 38.88 235.463 37.88C235.463 36.88 235.129 36.1067 234.463 35.56C233.809 35.0133 232.843 34.74 231.563 34.74H227.263L228.163 33.74V42.02Z" fill="white"/>
</g>
<defs>
<clipPath id="clip0_455765_5582">
<rect width="340" height="80" fill="white"/>
</clipPath>
</defs>
</svg>
